<svg width="14" height="14" viewBox="0 0 14 14" fill="none" xmlns="http://www.w3.org/2000/svg">
<g clip-path="url(#clip0_4_2612)">
<path d="M6.65872 13.8173C6.73479 13.9314 6.86287 14 7 14C7.13713 14 7.26521 13.9315 7.34128 13.8173C8.31195 12.3614 9.74168 10.5632 10.738 8.73444C11.5346 7.27221 11.9219 6.02509 11.9219 4.92188C11.9219 2.20795 9.71392 0 7 0C4.28608 0 2.07812 2.20795 2.07812 4.92188C2.07812 6.02509 2.46539 7.27221 3.26203 8.73444C4.25759 10.5618 5.69004 12.3644 6.65872 13.8173ZM7 0.820312C9.2616 0.820312 11.1016 2.66027 11.1016 4.92188C11.1016 5.88448 10.747 7.00323 10.0176 8.342C9.15884 9.91834 7.93335 11.5174 7 12.8617C6.06679 11.5176 4.84121 9.91843 3.98237 8.342C3.253 7.00323 2.89844 5.88448 2.89844 4.92188C2.89844 2.66027 4.7384 0.820312 7 0.820312Z" fill="black" fill-opacity="0.5"/>
<path d="M7 7.38281C8.35696 7.38281 9.46094 6.27884 9.46094 4.92188C9.46094 3.56491 8.35696 2.46094 7 2.46094C5.64304 2.46094 4.53906 3.56491 4.53906 4.92188C4.53906 6.27884 5.64304 7.38281 7 7.38281ZM7 3.28125C7.90464 3.28125 8.64062 4.01723 8.64062 4.92188C8.64062 5.82652 7.90464 6.5625 7 6.5625C6.09536 6.5625 5.35938 5.82652 5.35938 4.92188C5.35938 4.01723 6.09536 3.28125 7 3.28125Z" fill="black" fill-opacity="0.5"/>
</g>
<defs>
<clipPath id="clip0_4_2612">
<rect width="14" height="14" fill="white"/>
</clipPath>
</defs>
</svg>