<svg width="57" height="13" viewBox="0 0 57 13" fill="none" xmlns="http://www.w3.org/2000/svg">
<g clip-path="url(#clip0_4_2632)">
<path d="M6 0.5C2.69173 0.5 0 3.19173 0 6.5C0 9.80827 2.69173 12.5 6 12.5C9.30827 12.5 12 9.80827 12 6.5C12 3.19173 9.30827 0.5 6 0.5ZM9.35338 4.92105L5.5188 8.72556C5.29323 8.95113 4.93233 8.96617 4.69173 8.7406L2.66165 6.89098C2.42105 6.66541 2.40602 6.28947 2.61654 6.04887C2.84211 5.80827 3.21805 5.79323 3.45865 6.0188L5.06767 7.49248L8.49624 4.06391C8.73684 3.82331 9.11278 3.82331 9.35338 4.06391C9.59399 4.30451 9.59399 4.68045 9.35338 4.92105Z" fill="black" fill-opacity="0.6"/>
</g>
<path d="M21.308 11H20.012L17 2.432H18.224L20.672 9.86H20.696L23.168 2.432H24.356L21.308 11ZM28.7557 7.304C28.7397 7.064 28.6837 6.836 28.5877 6.62C28.4997 6.404 28.3757 6.22 28.2157 6.068C28.0637 5.908 27.8797 5.784 27.6637 5.696C27.4557 5.6 27.2237 5.552 26.9677 5.552C26.7037 5.552 26.4637 5.6 26.2477 5.696C26.0397 5.784 25.8597 5.908 25.7077 6.068C25.5557 6.228 25.4357 6.416 25.3477 6.632C25.2597 6.84 25.2077 7.064 25.1917 7.304H28.7557ZM29.7397 9.032C29.6037 9.728 29.3037 10.252 28.8397 10.604C28.3757 10.956 27.7917 11.132 27.0877 11.132C26.5917 11.132 26.1597 11.052 25.7917 10.892C25.4317 10.732 25.1277 10.508 24.8797 10.22C24.6317 9.932 24.4437 9.588 24.3157 9.188C24.1957 8.788 24.1277 8.352 24.1117 7.88C24.1117 7.408 24.1837 6.976 24.3277 6.584C24.4717 6.192 24.6717 5.852 24.9277 5.564C25.1917 5.276 25.4997 5.052 25.8517 4.892C26.2117 4.732 26.6037 4.652 27.0277 4.652C27.5797 4.652 28.0357 4.768 28.3957 5C28.7637 5.224 29.0557 5.512 29.2717 5.864C29.4957 6.216 29.6477 6.6 29.7277 7.016C29.8157 7.432 29.8517 7.828 29.8357 8.204H25.1917C25.1837 8.476 25.2157 8.736 25.2877 8.984C25.3597 9.224 25.4757 9.44 25.6357 9.632C25.7957 9.816 25.9997 9.964 26.2477 10.076C26.4957 10.188 26.7877 10.244 27.1237 10.244C27.5557 10.244 27.9077 10.144 28.1797 9.944C28.4597 9.744 28.6437 9.44 28.7317 9.032H29.7397ZM30.857 4.796H31.817V6.104H31.841C32.089 5.6 32.393 5.228 32.753 4.988C33.113 4.748 33.569 4.636 34.121 4.652V5.732C33.713 5.732 33.365 5.788 33.077 5.9C32.789 6.012 32.557 6.176 32.381 6.392C32.205 6.608 32.077 6.872 31.997 7.184C31.917 7.488 31.877 7.84 31.877 8.24V11H30.857V4.796ZM35.9691 3.68H34.9491V2.432H35.9691V3.68ZM34.9491 4.796H35.9691V11H34.9491V4.796ZM41.1613 11V4.796H42.1813V11H41.1613ZM41.1613 3.68V2.432H42.1813V3.68H41.1613ZM37.9693 5.696H36.9253V4.796H37.9693V3.872C37.9693 3.368 38.1133 2.988 38.4013 2.732C38.6973 2.468 39.1253 2.336 39.6853 2.336C39.7813 2.336 39.8893 2.344 40.0093 2.36C40.1373 2.376 40.2493 2.4 40.3453 2.432V3.32C40.2573 3.288 40.1613 3.268 40.0573 3.26C39.9533 3.244 39.8573 3.236 39.7693 3.236C39.5213 3.236 39.3293 3.284 39.1933 3.38C39.0573 3.476 38.9893 3.66 38.9893 3.932V4.796H40.1893V5.696H38.9893V11H37.9693V5.696ZM48.0682 7.304C48.0522 7.064 47.9962 6.836 47.9002 6.62C47.8122 6.404 47.6882 6.22 47.5282 6.068C47.3762 5.908 47.1922 5.784 46.9762 5.696C46.7682 5.6 46.5362 5.552 46.2802 5.552C46.0162 5.552 45.7762 5.6 45.5602 5.696C45.3522 5.784 45.1722 5.908 45.0202 6.068C44.8682 6.228 44.7482 6.416 44.6602 6.632C44.5722 6.84 44.5202 7.064 44.5042 7.304H48.0682ZM49.0522 9.032C48.9162 9.728 48.6162 10.252 48.1522 10.604C47.6882 10.956 47.1042 11.132 46.4002 11.132C45.9042 11.132 45.4722 11.052 45.1042 10.892C44.7442 10.732 44.4402 10.508 44.1922 10.22C43.9442 9.932 43.7562 9.588 43.6282 9.188C43.5082 8.788 43.4402 8.352 43.4242 7.88C43.4242 7.408 43.4962 6.976 43.6402 6.584C43.7842 6.192 43.9842 5.852 44.2402 5.564C44.5042 5.276 44.8122 5.052 45.1642 4.892C45.5242 4.732 45.9162 4.652 46.3402 4.652C46.8922 4.652 47.3482 4.768 47.7082 5C48.0762 5.224 48.3682 5.512 48.5842 5.864C48.8082 6.216 48.9602 6.6 49.0402 7.016C49.1282 7.432 49.1642 7.828 49.1482 8.204H44.5042C44.4962 8.476 44.5282 8.736 44.6002 8.984C44.6722 9.224 44.7882 9.44 44.9482 9.632C45.1082 9.816 45.3122 9.964 45.5602 10.076C45.8082 10.188 46.1002 10.244 46.4362 10.244C46.8682 10.244 47.2202 10.144 47.4922 9.944C47.7722 9.744 47.9562 9.44 48.0442 9.032H49.0522ZM50.9495 7.952C50.9495 8.24 50.9855 8.524 51.0575 8.804C51.1375 9.076 51.2535 9.32 51.4055 9.536C51.5655 9.752 51.7655 9.924 52.0055 10.052C52.2535 10.18 52.5415 10.244 52.8695 10.244C53.2135 10.244 53.5055 10.176 53.7455 10.04C53.9855 9.904 54.1815 9.728 54.3335 9.512C54.4855 9.288 54.5935 9.036 54.6575 8.756C54.7295 8.476 54.7655 8.192 54.7655 7.904C54.7655 7.6 54.7295 7.308 54.6575 7.028C54.5855 6.74 54.4695 6.488 54.3095 6.272C54.1575 6.056 53.9575 5.884 53.7095 5.756C53.4615 5.62 53.1615 5.552 52.8095 5.552C52.4655 5.552 52.1735 5.62 51.9335 5.756C51.6935 5.892 51.5015 6.072 51.3575 6.296C51.2135 6.52 51.1095 6.776 51.0455 7.064C50.9815 7.352 50.9495 7.648 50.9495 7.952ZM55.7495 11H54.7295V10.16H54.7055C54.5375 10.504 54.2735 10.752 53.9135 10.904C53.5535 11.056 53.1575 11.132 52.7255 11.132C52.2455 11.132 51.8255 11.044 51.4655 10.868C51.1135 10.692 50.8175 10.456 50.5775 10.16C50.3455 9.864 50.1695 9.52 50.0495 9.128C49.9295 8.736 49.8695 8.32 49.8695 7.88C49.8695 7.44 49.9255 7.024 50.0375 6.632C50.1575 6.24 50.3335 5.9 50.5655 5.612C50.8055 5.316 51.1015 5.084 51.4535 4.916C51.8135 4.74 52.2295 4.652 52.7015 4.652C52.8615 4.652 53.0335 4.668 53.2175 4.7C53.4015 4.732 53.5855 4.788 53.7695 4.868C53.9535 4.94 54.1255 5.04 54.2855 5.168C54.4535 5.288 54.5935 5.44 54.7055 5.624H54.7295V2.432H55.7495V11Z" fill="black" fill-opacity="0.6"/>
<defs>
<clipPath id="clip0_4_2632">
<rect width="12" height="12" fill="white" transform="translate(0 0.5)"/>
</clipPath>
</defs>
</svg>