<svg width="42" height="42" viewBox="0 0 42 42" fill="none" xmlns="http://www.w3.org/2000/svg">
<path d="M31.5 15.75H29.75V12.25C29.75 7.35 25.9 3.5 21 3.5C16.1 3.5 12.25 7.35 12.25 12.25V15.75H10.325L7 19.25V35L10.5 38.5H31.5L35 35V19.25L31.5 15.75ZM22.75 27.475V33.25H19.25V27.475C18.2 26.95 17.5 25.725 17.5 24.5C17.5 22.575 19.075 21 21 21C22.925 21 24.5 22.575 24.5 24.5C24.5 25.725 23.8 26.95 22.75 27.475ZM26.25 15.75H15.75V12.25C15.75 9.275 18.025 7 21 7C23.975 7 26.25 9.275 26.25 12.25V15.75Z" fill="#5F6A75"/>
</svg>