<svg width="94" height="18" viewBox="0 0 94 18" fill="none" xmlns="http://www.w3.org/2000/svg">
<path d="M17.625 0.5H0V17.5H17.625V0.5Z" fill="#00B67A"/>
<path d="M36.7188 0.499939H19.0938V17.4999H36.7188V0.499939Z" fill="#00B67A"/>
<path d="M55.8125 0.499939H38.1875V17.4999H55.8125V0.499939Z" fill="#00B67A"/>
<path d="M74.9063 0.499939H57.2812V17.4999H74.9063V0.499939Z" fill="#00B67A"/>
<path d="M94 0.499939H76.375V17.4999H94V0.499939Z" fill="#00B67A"/>
<path d="M8.81133 11.9577L11.4918 11.3025L12.6117 14.6316L8.81133 11.9577ZM14.9801 7.65456H10.2617L8.81133 3.36914L7.36094 7.65456H2.64258L6.46133 10.3108L5.01094 14.5962L8.82969 11.94L11.1797 10.3108L14.9801 7.65456Z" fill="white"/>
<path d="M27.9051 11.9577L30.5855 11.3025L31.7055 14.6316L27.9051 11.9577ZM34.0738 7.65456H29.3555L27.9051 3.36914L26.4547 7.65456H21.7363L25.5551 10.3108L24.1047 14.5962L27.9234 11.94L30.2734 10.3108L34.0738 7.65456Z" fill="white"/>
<path d="M46.9988 11.9577L49.6793 11.3025L50.7992 14.6316L46.9988 11.9577ZM53.1676 7.65456H48.4492L46.9988 3.36914L45.5484 7.65456H40.8301L44.6488 10.3108L43.1984 14.5962L47.0172 11.94L49.3672 10.3108L53.1676 7.65456Z" fill="white"/>
<path d="M66.0926 11.9577L68.773 11.3025L69.893 14.6316L66.0926 11.9577ZM72.2613 7.65456H67.543L66.0926 3.36914L64.6422 7.65456H59.9238L63.7426 10.3108L62.2922 14.5962L66.1109 11.94L68.4609 10.3108L72.2613 7.65456Z" fill="white"/>
<path d="M85.1863 11.9577L87.8668 11.3025L88.9867 14.6316L85.1863 11.9577ZM91.3551 7.65456H86.6367L85.1863 3.36914L83.7359 7.65456H79.0176L82.8363 10.3108L81.3859 14.5962L85.2047 11.94L87.5547 10.3108L91.3551 7.65456Z" fill="white"/>
</svg>
