<svg width="128" height="42" viewBox="0 0 128 42" fill="none" xmlns="http://www.w3.org/2000/svg">
<g clip-path="url(#clip0_6055_3181)">
<path d="M20.2504 16.2644C22.7293 13.1596 26.329 12.5194 28.9417 14.0172C32.9499 16.3165 32.8485 24.4706 27.3788 29.5546C26.0242 30.8151 21.0185 34.8101 13.8904 33.1817C6.68858 31.5363 1.68422 25.2334 1.15284 18.3818L1.15445 18.3812C0.924964 16.1887 1.39103 13.7081 2.49267 11.3163C0.897386 14.2048 -0.00991694 17.5247 8.17778e-05 21.0584C0.0326583 32.1333 9.03619 41.0847 20.1115 41.0526C31.1869 41.0204 40.138 32.0165 40.1058 20.9417C40.1054 20.8678 40.1004 20.7939 40.0993 20.7201C39.4973 15.1316 36.3717 11.2911 30.4381 10.9728C30.2623 10.9634 30.0843 10.9586 29.9042 10.9586C26.7984 10.9586 23.0786 12.3863 20.2504 16.2644Z" fill="url(#paint0_linear_6055_3181)"/>
<path d="M19.995 0.946866C12.4531 0.969122 5.89911 5.15358 2.49293 11.3165C1.3913 13.7083 0.925228 16.189 1.15471 18.3814C1.48451 21.5212 3.24525 24.072 6.63385 24.9167C11.5392 26.1422 15.4156 23.3756 19.9323 16.7171C20.0367 16.5625 20.1431 16.4125 20.2507 16.2646C23.2429 12.1616 27.2332 10.8014 30.4384 10.973C36.372 11.2913 39.4976 15.1318 40.0996 20.7203C39.9485 9.76896 31.0272 0.947349 20.0546 0.946704C20.0344 0.946704 20.0152 0.946866 19.995 0.946866Z" fill="url(#paint1_linear_6055_3181)"/>
<path d="M20.2509 16.2643C20.1433 16.4122 20.0369 16.5621 19.9325 16.7168C15.4159 23.3753 11.5394 26.1419 6.63407 24.9164C3.24547 24.0717 1.48473 21.5209 1.15493 18.3811L1.15332 18.3817C1.6847 25.2333 6.68906 31.5362 13.8909 33.1816C21.019 34.81 26.0247 30.815 27.3793 29.5545C32.8489 24.4705 32.9504 16.3164 28.9422 14.0171C28.0502 13.5058 27.0432 13.2435 26.0053 13.2435C24.0023 13.2435 21.8836 14.2194 20.2509 16.2643Z" fill="url(#paint2_linear_6055_3181)"/>
<mask id="mask0_6055_3181" style="mask-type:luminance" maskUnits="userSpaceOnUse" x="-4" y="-28" width="136" height="97">
<path d="M-3.88574 -27.0005H131.886V68.9995H-3.88574V-27.0005Z" fill="white"/>
</mask>
<g mask="url(#mask0_6055_3181)">
<path d="M84.0831 34.8726C82.8105 34.8726 81.8582 33.915 81.8582 32.6363C81.8582 31.3456 82.7857 30.4141 84.0831 30.4141C85.3792 30.4141 86.3186 31.3456 86.3186 32.6363C86.3186 33.915 85.361 34.8726 84.0831 34.8726ZM84.0831 29.6023C82.2725 29.6023 80.9033 30.905 80.9033 32.6363C80.9033 34.119 82.0095 35.6851 84.0642 35.6851C86.1696 35.6851 87.2682 34.1561 87.2682 32.6363C87.2682 30.8816 85.9304 29.6023 84.0831 29.6023Z" fill="white"/>
<path d="M89.2568 29.6744V35.6133H89.9379L89.9453 35.5886C90.1104 34.9432 90.1924 34.1689 90.1924 33.2234V32.8891H92.4561V32.0644H90.1924V30.4989H92.4561V29.6744H89.2568Z" fill="white"/>
<path d="M55.4199 33.8922C55.4199 34.2252 55.2589 34.7881 54.1983 34.7881H53.0729C53.1561 34.2757 53.199 33.6895 53.2027 33.008H54.1536C54.9588 33.008 55.4199 33.3295 55.4199 33.8922ZM53.6974 32.1953H53.2027V30.4989H53.9102C54.7314 30.4989 54.903 30.9281 54.903 31.2882C54.903 31.8971 54.5102 32.1953 53.6974 32.1953ZM54.9786 32.4584C55.5602 32.2068 55.8379 31.8131 55.8379 31.2034C55.8379 30.4493 55.2704 29.6744 53.9989 29.6744H52.2637V35.6133H54.3081C55.8166 35.6133 56.3522 34.7539 56.3522 34.0117C56.3522 33.2234 55.8379 32.6479 54.9786 32.4584Z" fill="white"/>
<path d="M60.5401 29.6744H59.8689L57.3379 35.6133H58.0359C58.3558 35.279 58.7319 34.6316 59.0443 33.8695H61.469L62.244 35.6133H63.1707L60.5401 29.6744ZM61.0819 33.057H59.3913L60.2037 31.0847L61.0819 33.057Z" fill="white"/>
<path d="M69.0642 29.6744V34.1307L65.162 29.6744H64.4509V35.6133H65.08L65.0875 35.5886C65.2557 34.9432 65.3395 34.1689 65.3395 33.2234V31.1921L69.1831 35.6133H69.9499V29.6744H69.0642Z" fill="white"/>
<path d="M76.7523 29.6744H75.624L73.22 32.2785V29.6744H72.2812V35.6133H72.9636L72.9716 35.5886C73.1381 34.9432 73.22 34.1689 73.22 33.2234V32.793L76.1258 35.6133H77.3841L74.1696 32.4948L76.7523 29.6744Z" fill="white"/>
<path d="M106.121 34.8726C104.849 34.8726 103.889 33.915 103.889 32.6363C103.889 31.3456 104.827 30.4141 106.121 30.4141C107.418 30.4141 108.359 31.3456 108.359 32.6363C108.359 33.915 107.395 34.8726 106.121 34.8726ZM106.121 29.6023C104.307 29.6023 102.939 30.905 102.939 32.6363C102.939 34.119 104.048 35.6851 106.1 35.6851C108.21 35.6851 109.306 34.1561 109.306 32.6363C109.306 30.8816 107.968 29.6023 106.121 29.6023Z" fill="white"/>
<path d="M118.285 33.0307H120.655V32.2068H118.285V30.4989H120.742V29.6744H117.346V35.6133H120.819V34.7879H118.154C118.24 34.2757 118.285 33.7001 118.285 33.0307Z" fill="white"/>
<path d="M125.364 29.6744H124.693L122.163 35.6133H122.859C123.183 35.279 123.557 34.6316 123.869 33.8695H126.292L127.065 35.6133H127.998L125.364 29.6744ZM125.907 33.057H124.215L125.033 31.0847L125.907 33.057Z" fill="white"/>
<path d="M102.046 29.6744H100.919L98.5125 32.2785V29.6744H97.5742V35.6133H98.2559L98.2648 35.5886C98.4306 34.9432 98.5125 34.1689 98.5125 33.2234V32.793L101.416 35.6133H102.679L99.4599 32.4948L102.046 29.6744Z" fill="white"/>
<path d="M115.078 34.3697C114.662 33.6895 114.331 33.1509 113.816 32.793C114.433 32.529 114.774 32.016 114.774 31.3458C114.774 30.3191 114.025 29.6744 112.814 29.6744H111.304V35.6133H111.988L111.989 35.5886C112.158 34.9432 112.245 34.1689 112.245 33.2234V33.0683H112.533C112.931 33.0683 113.267 33.1509 114.059 34.3938L114.84 35.6133H115.897L115.078 34.3697ZM113.838 31.3458C113.838 31.5977 113.764 31.8004 113.617 31.9562C113.428 32.147 113.129 32.2416 112.72 32.2416H112.245V30.4614H112.72C113.462 30.4614 113.829 30.7489 113.838 31.3224V31.3458Z" fill="white"/>
<path d="M85.1717 24.4551H87.4212V17.3047H82.3894V14.6044H89.3989V12.7034H73.123V14.6044H80.1359V17.3047H74.8993V19.1967H85.1717V24.4551Z" fill="white"/>
<path d="M85.273 8.46506V13.3486H86.6407C86.6407 13.3486 87.52 12.0396 87.52 9.74764V6.57337H74.8992V8.46506H85.273Z" fill="white"/>
<path d="M93.1592 17.4683H109.437V15.5766H93.1592V17.4683Z" fill="white"/>
<path d="M97.3238 22.4351V18.688H95.0762V23.3268C95.0762 23.8722 95.5416 24.3267 96.0943 24.3267H107.718V22.4351H97.3238Z" fill="white"/>
<path d="M101.3 12.6307C99.512 12.6307 98.2262 11.5935 98.2262 10.1652C98.2262 8.73682 99.512 7.69017 101.3 7.69017C103.083 7.69017 104.374 8.73682 104.374 10.1652C104.374 11.5935 103.083 12.6307 101.3 12.6307ZM101.3 5.80929C98.3542 5.80929 95.9583 7.76307 95.9583 10.1652C95.9583 12.5205 98.4054 14.5122 101.3 14.5122C104.191 14.5122 106.635 12.5205 106.635 10.1652C106.635 7.76307 104.241 5.80929 101.3 5.80929Z" fill="white"/>
<path d="M57.9542 22.4351V18.0326H55.7109V23.3268C55.7109 23.8722 56.1786 24.3267 56.7282 24.3267H68.0344V22.4351H57.9542Z" fill="white"/>
<path d="M67.8771 10.538V6.35398H65.623V18.6772H67.267C67.267 18.6772 67.8771 16.7856 67.8771 14.6487V12.43H70.2068V10.538H67.8771Z" fill="white"/>
<path d="M59.3578 7.57291V5.89957H56.9506V7.57291H52.7207V9.47363H56.1788C56.1848 9.47363 58.0574 8.91967 58.1503 8.89113C58.1671 8.90016 60.1196 9.47363 60.1196 9.47363H63.5783V7.57291H59.3578Z" fill="white"/>
<path d="M58.1509 14.7307C56.8532 14.7307 55.7563 13.5121 55.7563 12.0747C55.7563 10.6286 56.8532 9.41023 58.1509 9.41023C59.4579 9.41023 60.554 10.6286 60.554 12.0747C60.554 13.5121 59.4579 14.7307 58.1509 14.7307ZM58.1509 8.22893C55.4977 8.22893 53.6504 9.81002 53.6504 12.0946C53.6504 14.5318 55.6666 16.5146 58.1509 16.5146C60.6366 16.5146 62.6579 14.5318 62.6579 12.0946C62.6579 9.81002 60.8024 8.22893 58.1509 8.22893Z" fill="white"/>
<path d="M125.873 6.35437V9.95584H124.507V6.35437H122.38V16.395H124.507V11.775H125.873V16.3226H127.401C127.401 16.3226 127.999 14.6864 127.999 12.2933V6.35437H125.873Z" fill="white"/>
<path d="M117.942 7.51765V5.89931H115.536V7.51765H112.104V9.40967H114.757C114.766 9.40967 116.641 8.86409 116.736 8.82716C116.753 8.83797 118.707 9.40967 118.707 9.40967H121.381V7.51765H117.942Z" fill="white"/>
<path d="M116.736 14.0036C115.719 14.0036 114.855 12.9488 114.855 11.7017C114.855 10.4473 115.719 9.39196 116.736 9.39196C117.758 9.39196 118.619 10.4473 118.619 11.7017C118.619 12.9488 117.758 14.0036 116.736 14.0036ZM116.736 8.16438C114.391 8.16438 112.755 9.61919 112.755 11.7209C112.755 13.9841 114.538 15.8228 116.736 15.8228C118.936 15.8228 120.72 13.9841 120.72 11.7209C120.72 9.61919 119.082 8.16438 116.736 8.16438Z" fill="white"/>
<path d="M122.416 22.7269C120.747 22.7269 119.48 21.6337 119.48 20.2079C119.48 18.7599 120.747 17.6602 122.416 17.6602C124.123 17.6602 125.353 18.7332 125.353 20.2079C125.353 21.6624 124.123 22.7269 122.416 22.7269ZM122.416 15.868C119.622 15.868 117.345 17.8147 117.345 20.2079C117.345 22.5442 119.668 24.5278 122.416 24.5278C125.167 24.5278 127.493 22.5442 127.493 20.2079C127.493 17.8147 125.216 15.868 122.416 15.868Z" fill="white"/>
</g>
</g>
<defs>
<linearGradient id="paint0_linear_6055_3181" x1="32.4522" y1="9.07567" x2="6.18898" y2="35.4933" gradientUnits="userSpaceOnUse">
<stop stop-color="white"/>
<stop offset="0.1" stop-color="white"/>
<stop offset="0.763267"/>
<stop offset="1"/>
</linearGradient>
<linearGradient id="paint1_linear_6055_3181" x1="14.0344" y1="29.0471" x2="27.3949" y2="5.07656" gradientUnits="userSpaceOnUse">
<stop stop-color="white"/>
<stop offset="1"/>
</linearGradient>
<linearGradient id="paint2_linear_6055_3181" x1="7.72527" y1="30.5554" x2="26.4991" y2="11.6714" gradientUnits="userSpaceOnUse">
<stop stop-color="white"/>
<stop offset="0.05" stop-color="white"/>
<stop offset="0.538844"/>
<stop offset="1"/>
</linearGradient>
<clipPath id="clip0_6055_3181">
<rect width="128" height="40.1063" fill="white" transform="translate(0 0.946777)"/>
</clipPath>
</defs>
</svg>
