<svg width="99" height="20" viewBox="0 0 99 20" fill="none" xmlns="http://www.w3.org/2000/svg">
<g clip-path="url(#clip0_2088_154)">
<path d="M57.4036 15.5096H51.144V11.7816H57.407C58.4368 11.7997 59.2681 12.6172 59.2681 13.6386C59.2681 14.6599 58.4335 15.5096 57.4036 15.5096ZM51.144 4.57934H57.2959C58.1374 4.59001 58.8507 5.27935 58.8507 6.18271C58.8507 7.08246 58.1036 7.80019 57.259 7.78952H51.144V4.57934ZM60.9407 9.79271C62.0984 8.92857 62.5358 7.49672 62.5358 5.92207C62.5358 2.95825 60.1835 0.58364 57.2993 0.58364H46.8531V19.5053H57.7099V19.5127C60.7589 19.5127 63.2964 17.0166 63.2964 13.9601C63.2964 11.9676 62.1657 10.4927 60.9407 9.79271ZM77.0509 0.540966V11.1784C77.0509 14.4315 75.2604 15.7954 73.0595 15.7954C70.8552 15.7954 69.0782 14.4349 69.0782 11.1819V0.540966H64.6325V11.2106C64.6325 18.0165 68.4017 19.9982 73.0595 19.9982C77.7206 19.9982 81.4931 18.0165 81.4931 11.2106V0.540966H77.0509ZM92.6496 7.91475C89.0519 7.08623 87.837 6.71842 87.837 5.50798C87.837 4.44032 89.1394 3.90116 91.1957 3.90116C93.1375 3.90116 95.4832 4.77958 96.8596 5.65438L98.2629 1.80508C96.1765 0.88383 93.6659 0.00180531 90.3475 0.00180531C85.9962 0.00180531 83.2802 2.70139 83.2802 6.00069C83.2802 9.30377 85.5182 10.7571 89.9539 11.7534C93.3932 12.5246 94.3253 12.9888 94.3253 14.1244C94.3253 15.26 92.9455 15.6775 91.0812 15.6775C88.6681 15.6775 86.3461 14.8241 84.1585 13.8278L82.8359 17.5806C85.4509 18.8662 88.1668 19.8981 91.4042 19.8981C96.799 19.8981 99 17.1629 99 13.9742C99 11.1389 97.149 8.95352 92.6495 7.91459M9.00915 0.58364L0 19.5019L5.35095 19.5055L6.69719 16.4632H12.8422L10.9308 12.3173H8.50441L10.7895 7.14335L16.5443 19.5055H21.9089L12.5495 0.58364H9.00915ZM45.2076 6.87549C45.2076 3.42962 42.9796 0.633699 38.3992 0.633699H29.1478V19.5554L33.4352 19.5516V4.62923H38.6954C40.2501 4.62923 40.8963 5.6506 40.8963 6.86466C40.8963 8.08233 40.2166 9.05708 38.6617 9.05708H34.9832L40.5498 19.5516H44.9517C44.9517 19.5516 41.1421 12.6922 41.1622 12.6886C43.9118 11.7816 45.2074 9.5713 45.2074 6.87533M22.8275 19.5124H27.2631V0.594308H22.8275V19.5124Z" fill="white"/>
</g>
<defs>
<clipPath id="clip0_2088_154">
<rect width="99" height="20" fill="white"/>
</clipPath>
</defs>
</svg>