<svg width="21" height="20" viewBox="0 0 21 20" fill="none" xmlns="http://www.w3.org/2000/svg">
<g clip-path="url(#clip0_2088_37)">
<path d="M3.76312 6.90363H1.25269C0.929092 6.90363 0.666748 7.16597 0.666748 7.48956V13.7656C0.666748 14.0892 0.929092 14.3516 1.25269 14.3516H3.76312C4.08671 14.3516 4.34905 14.0892 4.34905 13.7656V7.48956C4.34905 7.16597 4.08671 6.90363 3.76312 6.90363Z" fill="white"/>
<path d="M14.7462 13.6823C15.0698 13.6823 15.3321 13.4199 15.3321 13.0963V11.7995H15.3738C15.6974 11.7995 15.9597 11.5371 15.9597 11.2135C15.9597 10.8899 15.6974 10.6276 15.3738 10.6276H15.3321V7.44791C15.3321 7.21095 15.1894 6.99728 14.9705 6.90658C14.7516 6.81588 14.4996 6.86595 14.3319 7.03353C14.3319 7.03353 12.5025 8.86232 11.6352 9.72904C11.2456 10.1207 11.0222 10.6618 11.0222 11.2135C11.0222 11.5371 11.2846 11.7995 11.6082 11.7995H14.1603V13.0963C14.1603 13.4199 14.4226 13.6823 14.7462 13.6823ZM12.4013 10.6276C12.4212 10.6029 12.4424 10.5792 12.4648 10.5567C12.9037 10.1181 13.59 9.43213 14.1602 8.86213V10.6276H12.4013Z" fill="white"/>
<path d="M9.99808 13.0964C9.99808 12.7728 9.73573 12.5104 9.41214 12.5104H7.06733C7.08722 12.4857 7.10839 12.462 7.13077 12.4395C7.9969 11.574 9.8264 9.74512 9.8264 9.74512C9.93632 9.63524 9.99812 9.48618 9.99812 9.33075V9.01696C9.99812 7.82872 9.03144 6.862 7.84319 6.862C6.64366 6.862 5.68823 7.83364 5.68823 9.0163V9.01692C5.68823 9.34051 5.95058 9.60255 6.27417 9.60255C6.59776 9.60255 6.86011 9.33989 6.86011 9.0163C6.86011 8.47876 7.29292 8.03387 7.84319 8.03387C8.38526 8.03387 8.82624 8.47489 8.82624 9.01696V9.08798C8.35112 9.56294 7.00733 10.9062 6.30116 11.6119C5.91159 12.0036 5.68823 12.5447 5.68823 13.0964C5.68823 13.42 5.95058 13.6823 6.27417 13.6823H9.41218C9.73573 13.6823 9.99808 13.42 9.99808 13.0964Z" fill="white"/>
<path d="M10.6682 1.17188C13.609 1.17188 16.087 3.19172 16.7877 5.91699C17.0239 5.79871 17.2901 5.73176 17.5718 5.73176H17.9489C17.1559 2.44734 14.1926 0 10.6682 0C7.14366 0 4.18046 2.44734 3.38745 5.73176H3.76452C4.0462 5.73176 4.31237 5.79871 4.54862 5.91699C5.24933 3.19172 7.72729 1.17188 10.6682 1.17188Z" fill="white"/>
<path d="M16.6712 15.2756C16.0855 16.6259 14.7396 17.5729 13.1765 17.5729H12.4111C12.1658 16.8442 11.4765 16.3177 10.6661 16.3177C9.65093 16.3177 8.82495 17.1436 8.82495 18.1588C8.82495 19.174 9.65089 20 10.6661 20C11.4764 20 12.1657 19.4735 12.4111 18.7448H13.1765C15.3035 18.7448 17.1229 17.404 17.8349 15.5234H17.5697C17.2416 15.5234 16.9343 15.4328 16.6712 15.2756Z" fill="white"/>
<path d="M20.0815 6.90363H17.571C17.2475 6.90363 16.9851 7.16597 16.9851 7.48956V13.7656C16.9851 14.0892 17.2475 14.3516 17.571 14.3516H20.0815C20.4051 14.3516 20.6674 14.0892 20.6674 13.7656V7.48956C20.6674 7.16597 20.4051 6.90363 20.0815 6.90363Z" fill="white"/>
</g>
<defs>
<clipPath id="clip0_2088_37">
<rect width="20" height="20" fill="white" transform="translate(0.666748)"/>
</clipPath>
</defs>
</svg>
