<svg width="21" height="20" viewBox="0 0 21 20" fill="none" xmlns="http://www.w3.org/2000/svg">
<g clip-path="url(#clip0_2088_47)">
<path d="M19.9162 11.6667C19.9162 10.6602 19.3171 9.79296 18.4578 9.39697V9.16669C18.4578 4.6865 14.813 1.04169 10.3328 1.04169C5.85266 1.04169 2.20784 4.6865 2.20784 9.16669V9.39697C1.3486 9.79296 0.749512 10.6602 0.749512 11.6667C0.749512 13.0452 1.87093 14.1667 3.24951 14.1667H4.08284C4.31295 14.1667 4.49951 13.9801 4.49951 13.75V9.58335C4.49951 9.35325 4.31295 9.16669 4.08284 9.16669H3.24951C3.17919 9.16669 3.11005 9.17152 3.04118 9.17724V9.16669C3.04118 5.1461 6.31226 1.87502 10.3328 1.87502C14.3534 1.87502 17.6245 5.1461 17.6245 9.16669V9.17724C17.5556 9.17152 17.4865 9.16669 17.4162 9.16669H16.5828C16.3527 9.16669 16.1662 9.35325 16.1662 9.58335V13.75C16.1662 13.9801 16.3527 14.1667 16.5828 14.1667H17.4162C17.4865 14.1667 17.5556 14.1619 17.6245 14.1561V14.7917C17.6245 16.1702 16.5031 17.2917 15.1245 17.2917H11.9995C11.9995 16.8322 11.6258 16.4584 11.1662 16.4584H9.08284C8.62325 16.4584 8.24951 16.8322 8.24951 17.2917V18.125C8.24951 18.5845 8.62325 18.9584 9.08284 18.9584H11.1662C11.6258 18.9584 11.9995 18.5845 11.9995 18.125H15.1245C16.9625 18.125 18.4578 16.6297 18.4578 14.7917V13.9364C19.3171 13.5404 19.9162 12.6732 19.9162 11.6667ZM3.66618 10V13.3334H3.24951C2.33053 13.3334 1.58285 12.5857 1.58285 11.6667C1.58285 10.7477 2.33053 10 3.24951 10H3.66618ZM9.08284 18.125V17.2917H11.1662L11.1665 17.7054C11.1665 17.7064 11.1662 17.7073 11.1662 17.7084C11.1662 17.7094 11.1665 17.7104 11.1665 17.7114L11.1668 18.125H9.08284ZM17.4162 13.3334H16.9995V10H17.4162C18.3352 10 19.0828 10.7477 19.0828 11.6667C19.0828 12.5857 18.3352 13.3334 17.4162 13.3334ZM10.3328 14.375C12.8601 14.375 14.9162 12.3189 14.9162 9.79169C14.9162 7.26442 12.8601 5.20835 10.3328 5.20835C7.80558 5.20835 5.74951 7.26442 5.74951 9.79169C5.74951 10.6094 5.96863 11.4085 6.38489 12.1138L5.96537 14.2964C5.93628 14.448 5.99325 14.6032 6.11369 14.6999C6.18896 14.7604 6.28133 14.7917 6.37451 14.7917C6.43046 14.7917 6.48661 14.7805 6.53971 14.7576L8.41044 13.9501C9.01693 14.2322 9.66268 14.375 10.3328 14.375ZM6.93237 13.6804L7.23368 12.1121C7.25382 12.0073 7.23307 11.8987 7.1755 11.8088C6.78772 11.2035 6.58284 10.506 6.58284 9.79169C6.58284 7.72392 8.26518 6.04169 10.3328 6.04169C12.4005 6.04169 14.0828 7.72392 14.0828 9.79169C14.0828 11.8595 12.4005 13.5417 10.3328 13.5417C9.73043 13.5417 9.15181 13.4003 8.61308 13.1215C8.5022 13.064 8.37117 13.0592 8.25643 13.1089L6.93237 13.6804ZM10.3328 11.0417H8.24951C8.01941 11.0417 7.83284 10.8551 7.83284 10.625C7.83284 10.3949 8.01941 10.2084 8.24951 10.2084H10.3328C10.5629 10.2084 10.7495 10.3949 10.7495 10.625C10.7495 10.8551 10.5629 11.0417 10.3328 11.0417ZM7.83284 8.95835C7.83284 8.72825 8.01941 8.54169 8.24951 8.54169H12.4162C12.6463 8.54169 12.8328 8.72825 12.8328 8.95835C12.8328 9.18846 12.6463 9.37502 12.4162 9.37502H8.24951C8.01941 9.37502 7.83284 9.18846 7.83284 8.95835Z" fill="white"/>
</g>
<defs>
<clipPath id="clip0_2088_47">
<rect width="20" height="20" fill="white" transform="translate(0.333496)"/>
</clipPath>
</defs>
</svg>
