<svg width="20" height="20" viewBox="0 0 20 20" fill="none" xmlns="http://www.w3.org/2000/svg">
<path d="M18.0127 2.37824L10.1677 0.0247266C10.058 -0.00824219 9.94086 -0.00824219 9.83102 0.0247266L1.98594 2.37824C1.73809 2.45258 1.56836 2.6807 1.56836 2.93945V11.569C1.56836 12.6914 2.02273 13.8404 2.91887 14.984C3.60332 15.8575 4.5502 16.7345 5.73324 17.5909C7.72062 19.0295 9.67758 19.912 9.75992 19.9488C9.83609 19.9829 9.9177 20 9.99934 20C10.0809 20 10.1626 19.983 10.2388 19.9488C10.3211 19.912 12.278 19.0295 14.2654 17.5909C15.4484 16.7345 16.3953 15.8575 17.0797 14.984C17.9759 13.8404 18.4302 12.6914 18.4302 11.569V2.93945C18.4303 2.6807 18.2606 2.45258 18.0127 2.37824ZM17.2584 11.569C17.2584 13.5554 15.2653 15.418 13.5933 16.6307C12.0943 17.718 10.5741 18.4895 9.99938 18.7666C9.42461 18.4895 7.90438 17.718 6.40539 16.6307C4.73336 15.418 2.74023 13.5554 2.74023 11.569V3.37539L9.99934 1.19766L17.2584 3.37539V11.569Z" fill="white"/>
</svg>
