<svg width="20" height="20" viewBox="0 0 20 20" fill="none" xmlns="http://www.w3.org/2000/svg">
<path d="M3.316 9.00814C3.14662 9.00814 3.00725 8.87251 3.0035 8.7022C2.96912 7.06939 3.50944 5.46907 4.52506 4.19595C6.38069 1.86814 9.62569 0.959699 12.416 1.98626C15.1741 3.00095 17.0566 5.76251 16.9947 8.7022C16.991 8.8747 16.8469 9.01376 16.6757 9.00814C16.5032 9.00439 16.3663 8.86157 16.3697 8.68907C16.4266 6.01189 14.7119 3.49689 12.2004 2.57282C9.65881 1.63845 6.70381 2.46595 5.01381 4.58564C4.08944 5.7447 3.59756 7.2022 3.62881 8.68907C3.63225 8.86157 3.49537 9.00439 3.32287 9.00814C3.32037 9.00814 3.31819 9.00814 3.316 9.00814Z" fill="white"/>
<path d="M9.99976 18.4325C9.9007 18.4325 9.80757 18.3856 9.74851 18.306C8.98445 17.2738 8.04382 16.3531 7.13445 15.4628C6.15507 14.5041 5.14226 13.5125 4.32382 12.3628C3.49539 11.1985 3.05132 9.96846 3.00414 8.70752C2.99757 8.53502 3.13226 8.39002 3.30476 8.38346C3.48789 8.37627 3.62226 8.51158 3.62882 8.68408C3.67132 9.82158 4.07664 10.9372 4.8332 12.0006C5.61914 13.105 6.61164 14.0766 7.57164 15.0163C8.40257 15.8297 9.25882 16.6681 9.99945 17.6053C10.7991 16.5878 11.7244 15.68 12.6219 14.7994L12.7835 14.641C14.3394 13.1131 16.276 11.2119 16.3707 8.68377C16.3773 8.51127 16.5276 8.37689 16.6948 8.38314C16.8673 8.38971 17.0019 8.53471 16.9954 8.70721C16.8913 11.4835 14.8566 13.4816 13.2216 15.0869L13.0598 15.2456C12.0838 16.2031 11.0748 17.1928 10.251 18.306C10.1919 18.3853 10.0988 18.4325 9.99976 18.4325Z" fill="white"/>
<path d="M7.05469 10.5828C6.88219 10.5828 6.74219 10.4428 6.74219 10.2703V6.55347C6.74219 6.38097 6.88219 6.24097 7.05469 6.24097C7.22719 6.24097 7.36719 6.38097 7.36719 6.55347V10.2703C7.36719 10.4428 7.22719 10.5828 7.05469 10.5828Z" fill="white"/>
<path d="M12.9431 10.5828C12.7706 10.5828 12.6306 10.4428 12.6306 10.2703V9.02032C12.6306 8.84782 12.7706 8.70782 12.9431 8.70782C13.1156 8.70782 13.2556 8.84782 13.2556 9.02032V10.2703C13.2556 10.4428 13.1159 10.5828 12.9431 10.5828Z" fill="white"/>
<path d="M12.9425 8.08282H9.24219C9.06969 8.08282 8.92969 7.94282 8.92969 7.77032C8.92969 7.59782 9.06969 7.45782 9.24219 7.45782H12.9428C13.1153 7.45782 13.2553 7.59782 13.2553 7.77032C13.2553 7.94282 13.1153 8.08282 12.9425 8.08282Z" fill="white"/>
<path d="M12.9425 9.33282H7.05469C6.88219 9.33282 6.74219 9.19282 6.74219 9.02032C6.74219 8.84782 6.88219 8.70782 7.05469 8.70782H12.9428C13.1153 8.70782 13.2553 8.84782 13.2553 9.02032C13.2553 9.19282 13.1153 9.33282 12.9425 9.33282Z" fill="white"/>
<path d="M10.0221 13.675C7.82458 13.675 5.81364 12.2282 5.13239 10.1566C4.66958 8.74971 4.85614 7.19971 5.64458 5.90346C6.43145 4.61003 7.71895 3.73315 9.17739 3.49815C9.44177 3.45565 9.71083 3.43378 9.97708 3.43378C12.7655 3.43378 15.1211 5.77878 15.1211 8.5544C15.1211 11.0416 13.2724 13.2153 10.8205 13.611C10.5571 13.6535 10.2883 13.675 10.0221 13.675ZM9.97645 4.05878C9.74333 4.05878 9.5077 4.07784 9.27645 4.11503C7.99927 4.32096 6.86989 5.09128 6.17802 6.22815C5.48489 7.36753 5.31989 8.72815 5.72552 9.96128C6.32395 11.7797 8.09052 13.0497 10.0215 13.05C10.2546 13.05 10.4899 13.0313 10.7202 12.9941C12.8724 12.6469 14.4952 10.7385 14.4952 8.55471C14.4955 6.11753 12.4261 4.05878 9.97645 4.05878Z" fill="white"/>
<path d="M8.30469 8.08282H8.14844C7.97594 8.08282 7.83594 7.94282 7.83594 7.77032C7.83594 7.59782 7.97594 7.45782 8.14844 7.45782H8.30469C8.47719 7.45782 8.61719 7.59782 8.61719 7.77032C8.61719 7.94282 8.47719 8.08282 8.30469 8.08282Z" fill="white"/>
</svg>
