<svg width="100" height="100" viewBox="0 0 100 100" fill="none" xmlns="http://www.w3.org/2000/svg">
<g clip-path="url(#clip0_2088_181)">
<path d="M53.3292 58.3747C52.1713 58.3747 51.0473 58.672 50.0544 59.2162C48.1989 56.5362 44.1479 55.5875 41.2643 57.2629C39.5069 54.7261 35.7297 53.7087 32.8957 55.09V42.0031C56.1491 34.4336 51.0223 0.366059 26.5082 0C1.94106 0.469978 -3.1406 34.3021 20.1219 42.0029V65.5672C18.4305 65.8592 16.9815 66.748 15.8824 68.1804C10.1606 76.5001 17.3495 90.668 25.1132 95.3401V98.0591C25.2093 100.648 28.9247 100.646 29.0199 98.0591V94.2689C29.0199 93.5883 28.6657 92.9568 28.0848 92.6019C23.0465 89.5239 19.9139 85.157 18.2264 78.859C17.3574 75.6155 17.6609 72.2797 18.9816 70.5586C19.3101 70.1306 19.6877 69.82 20.1217 69.6235V73.8219C20.2179 76.4109 23.9333 76.4089 24.0285 73.8219V38.7695C24.1535 35.4829 28.8648 35.4855 28.9888 38.7695V60.4422C28.9888 61.4536 29.761 62.2979 30.7683 62.3877C31.7757 62.4768 32.6854 61.7837 32.8647 60.7883C33.5179 57.595 37.9803 57.5959 38.6329 60.7883C38.7724 61.5622 39.3623 62.1771 40.1298 62.3484C40.8975 62.5196 41.6927 62.2141 42.1482 61.5732C43.6245 59.4497 46.9691 60.2199 47.4232 62.7417C47.5627 63.5156 48.1526 64.1305 48.9201 64.3018C49.6878 64.4729 50.483 64.1674 50.9385 63.5263C52.4922 61.2604 56.2512 62.326 56.2594 65.0314V76.7515C56.2594 82.8144 53.2585 88.5168 48.2321 92.0055C47.7063 92.3706 47.3926 92.9701 47.3926 93.6102V98.0586C47.4887 100.648 51.2042 100.646 51.2993 98.0586V94.6035C56.8705 90.3475 60.1664 83.7496 60.1664 76.7515V65.0314C60.166 61.361 57.0988 58.3747 53.3292 58.3747ZM26.5086 32.3826C23.2854 32.3826 20.6122 34.7829 20.1823 37.8897C2.22586 30.7445 7.08973 4.14756 26.509 3.90672C45.9289 4.14249 50.7949 30.774 32.8352 37.8905C32.4056 34.7832 29.7323 32.3826 26.5086 32.3826Z" fill="#2A3847"/>
<path d="M35.2136 15.2223C34.4508 14.4597 33.2141 14.4597 32.4509 15.2223L24.0654 23.6079L20.5634 20.1057C18.671 18.3403 16.0361 20.9779 17.8008 22.8684L22.6842 27.7518C23.4471 28.5145 24.6838 28.5145 25.4468 27.7518L35.2136 17.985C35.9764 17.222 35.9764 15.9851 35.2136 15.2223Z" fill="#2A3847"/>
<path d="M73.3893 0C61.5414 0 51.9023 9.63904 51.9023 21.4869C52.9826 49.953 93.8001 49.9452 94.8762 21.4867C94.8762 9.63904 85.2372 0 73.3893 0ZM73.3893 39.0672C63.6955 39.0672 55.8091 31.1807 55.8091 21.4869C56.693 -1.80354 90.0891 -1.79729 90.9695 21.4871C90.9695 31.1807 83.083 39.0672 73.3893 39.0672Z" fill="#2A3847"/>
<path d="M80.143 14.7338C79.3802 13.971 78.1433 13.971 77.3804 14.7338L73.3898 18.7243L69.3993 14.7338C67.5069 12.9684 64.872 15.606 66.6367 17.4965L70.6274 21.487L66.6369 25.4775C64.8715 27.3701 67.5091 30.0046 69.3995 28.2401L73.39 24.2496L77.3806 28.2401C79.2728 30.0056 81.908 27.3679 80.1432 25.4775L76.1525 21.487L80.143 17.4965C80.9058 16.7337 80.9058 15.4966 80.143 14.7338Z" fill="#2A3847"/>
</g>
<defs>
<clipPath id="clip0_2088_181">
<rect width="100" height="100" fill="white"/>
</clipPath>
</defs>
</svg>
