<svg width="100" height="100" viewBox="0 0 100 100" fill="none" xmlns="http://www.w3.org/2000/svg">
<path d="M73.9375 37.0625C73.9375 32.3281 72.5336 27.7001 69.9033 23.7635C67.273 19.827 63.5345 16.7589 59.1605 14.9471C54.7865 13.1354 49.9735 12.6613 45.33 13.585C40.6866 14.5086 36.4214 16.7884 33.0736 20.1361C29.7259 23.4839 27.4461 27.7491 26.5225 32.3925C25.5988 37.036 26.0729 41.849 27.8846 46.223C29.6964 50.597 32.7645 54.3355 36.701 56.9658C40.6376 59.5961 45.2656 61 50 61C56.3468 60.9942 62.432 58.4703 66.9199 53.9824C71.4078 49.4945 73.9317 43.4093 73.9375 37.0625ZM29.1875 37.0625C29.1875 32.9462 30.4081 28.9223 32.6951 25.4997C34.982 22.0771 38.2324 19.4095 42.0354 17.8343C45.8384 16.259 50.0231 15.8469 54.0603 16.6499C58.0976 17.453 61.806 19.4352 64.7167 22.3458C67.6274 25.2565 69.6096 28.965 70.4126 33.0022C71.2157 37.0394 70.8035 41.2241 69.2283 45.0271C67.653 48.8301 64.9854 52.0806 61.5628 54.3675C58.1402 56.6544 54.1163 57.875 50 57.875C44.4812 57.8716 39.1895 55.6777 35.2871 51.7754C31.3848 47.873 29.1909 42.5813 29.1875 37.0625Z" fill="#2A3847"/>
<path d="M63.4876 71.8707C67.971 65.0595 72.6569 58.0309 73.9691 56.4219C78.9375 50.2733 81.3516 42.4498 80.7117 34.5706C80.0718 26.6915 76.427 19.3601 70.5316 14.0937C67.2976 11.1772 63.4777 8.9854 59.3278 7.66499C55.178 6.34457 50.7939 5.92606 46.4691 6.43748C33.0629 7.93748 20.641 20.5469 19.3441 33.9844C18.5359 41.9642 20.8799 49.9437 25.8754 56.2187C27.4222 58.1719 32.1097 65.125 36.5472 71.8594L36.5504 71.8641C27.7616 73.3971 19.1875 76.8002 19.1875 82.2662C19.1875 89.7262 35.0628 93.7515 50.0004 93.7515C64.938 93.7515 80.8132 89.7263 80.8132 82.2663C80.8132 76.7932 72.2655 73.3978 63.4876 71.8707ZM28.3285 54.2812C23.8348 48.6369 21.7263 41.4592 22.4535 34.2812C23.5941 22.4219 34.9847 10.875 46.8129 9.54686C47.8822 9.43548 48.9565 9.37811 50.0316 9.37498C56.8351 9.35003 63.4036 11.8626 68.4535 16.4219C71.3554 19.0213 73.6774 22.2027 75.2685 25.7589C76.8595 29.3152 77.6838 33.1666 77.6879 37.0625C77.7152 43.398 75.5388 49.5458 71.5316 54.4531C70.0316 56.3125 64.4691 64.6406 59.5941 72.0625C59.5674 72.1025 59.5463 72.137 59.5208 72.1759C59.4962 72.2129 59.4711 72.2465 59.4497 72.2858L59.4222 72.3281C55.3441 78.5312 51.7816 84.0156 51.4535 84.5156C51.2904 84.7473 51.0739 84.9364 50.8224 85.067C50.5708 85.1975 50.2916 85.2656 50.0082 85.2656C49.7248 85.2656 49.4456 85.1975 49.194 85.067C48.9425 84.9364 48.726 84.7473 48.5629 84.5156C47.8754 83.4531 31.641 58.4375 28.3285 54.2812ZM50.0004 90.6265C32.8457 90.6265 22.3125 85.7575 22.3125 82.2663C22.3125 79.6775 27.8579 76.3113 38.4414 74.7241C42.4556 80.8467 45.8754 86.1094 45.9379 86.2187C46.3781 86.8951 46.9802 87.4509 47.6897 87.8356C48.3991 88.2204 49.1933 88.4219 50.0004 88.4219C50.8074 88.4219 51.6017 88.2204 52.3111 87.8356C53.0205 87.4509 53.6227 86.8951 54.0629 86.2187C54.141 86.1095 57.5746 80.8344 61.5871 74.7295C72.0441 76.2969 77.6882 79.7348 77.6882 82.2662C77.6882 85.7574 67.1551 90.6265 50.0004 90.6265Z" fill="#2A3847"/>
<path d="M60.8285 50.7812C61.2426 50.78 61.6393 50.615 61.932 50.3222C62.2248 50.0295 62.3898 49.6328 62.391 49.2187V37.4064L63.0551 37.9669C63.3723 38.2317 63.7814 38.3602 64.193 38.3242C64.6046 38.2882 64.9852 38.0907 65.2517 37.7749C65.5181 37.4591 65.6486 37.0506 65.6147 36.6388C65.5808 36.227 65.3852 35.8454 65.0707 35.5774L51.0082 23.7091C50.7263 23.4712 50.3693 23.3406 50.0004 23.3406C49.6315 23.3406 49.2745 23.4712 48.9926 23.7091L43.5788 28.2781V24.8993C43.5788 24.4849 43.4141 24.0875 43.1211 23.7944C42.8281 23.5014 42.4307 23.3368 42.0163 23.3368C41.6019 23.3368 41.2044 23.5014 40.9114 23.7944C40.6184 24.0875 40.4538 24.4849 40.4538 24.8993V30.9156L34.9301 35.5774C34.6156 35.8454 34.42 36.227 34.3861 36.6388C34.3522 37.0506 34.4827 37.4591 34.7492 37.7749C35.0156 38.0907 35.3962 38.2882 35.8078 38.3242C36.2194 38.3602 36.6286 38.2317 36.9457 37.9669L37.6098 37.4064V49.2187C37.611 49.6328 37.776 50.0295 38.0688 50.3222C38.3616 50.615 38.7583 50.78 39.1723 50.7812H60.8285ZM40.7322 34.7711L43.1207 32.7552L50.0004 26.9485L59.2686 34.7711L59.266 34.7812V47.6562H54.5004V44.9687C54.5004 44.3778 54.384 43.7926 54.1579 43.2467C53.9317 42.7007 53.6003 42.2046 53.1824 41.7868C52.7645 41.3689 52.2684 41.0374 51.7225 40.8113C51.1765 40.5851 50.5914 40.4687 50.0004 40.4687C49.4095 40.4687 48.8243 40.5851 48.2783 40.8113C47.7324 41.0374 47.2363 41.3689 46.8184 41.7868C46.4006 42.2046 46.0691 42.7007 45.843 43.2467C45.6168 43.7926 45.5004 44.3778 45.5004 44.9687V47.6562H40.7348V34.7812L40.7322 34.7711Z" fill="#2A3847"/>
</svg>
