<svg width="100" height="100" viewBox="0 0 100 100" fill="none" xmlns="http://www.w3.org/2000/svg">
<path d="M96.2296 91.4912C95.5966 83.0547 89.6583 76.1129 81.8575 73.8568C85.429 71.91 87.8577 68.1205 87.8577 63.7746C87.8577 57.4475 82.7104 52.3002 76.3833 52.3002C70.0561 52.3002 64.9087 57.4475 64.9087 63.7746C64.9087 68.1232 67.3403 71.9145 70.9151 73.8604C67.1624 74.9457 63.7612 77.1283 61.1927 80.1615C59.4622 79.0836 57.571 78.2467 55.5683 77.698C59.5165 75.6687 62.2255 71.5559 62.2255 66.8197C62.2255 60.0783 56.7411 54.5939 49.9997 54.5939C43.2583 54.5939 37.7739 60.0783 37.7739 66.8197C37.7739 71.5561 40.4829 75.6687 44.4312 77.698C42.4282 78.2465 40.537 79.0836 38.8065 80.1615C36.2382 77.1281 32.837 74.9455 29.0843 73.8602C32.6591 71.9143 35.0905 68.1228 35.0905 63.7744C35.0905 57.4473 29.9433 52.3 23.6161 52.3C17.289 52.3 12.1415 57.4473 12.1415 63.7744C12.1415 68.1203 14.5704 71.9098 18.1417 73.8566C10.3409 76.1127 4.40264 83.0545 3.76963 91.4914C3.71064 92.2793 3.98369 93.0617 4.51865 93.6383C5.05342 94.2147 5.81357 94.5455 6.60381 94.5455H29.0317C28.9099 95.2348 28.8208 95.9352 28.7675 96.6459C28.7063 97.4609 28.9886 98.2701 29.5417 98.8664C30.0948 99.4627 30.8806 99.8047 31.6978 99.8047H68.3013C69.1188 99.8047 69.9048 99.4627 70.4581 98.8662C71.0112 98.2697 71.2931 97.4605 71.2319 96.6459C71.1786 95.9352 71.0895 95.2348 70.9677 94.5455H93.3956C94.1856 94.5455 94.9456 94.2148 95.4806 93.6383C96.0155 93.0619 96.2886 92.2795 96.2296 91.4912ZM68.0335 63.7744C68.0335 59.1705 71.7792 55.425 76.3831 55.425C80.987 55.425 84.7325 59.1705 84.7325 63.7744C84.7325 68.3783 80.987 72.124 76.3831 72.124C71.7792 72.124 68.0335 68.3785 68.0335 63.7744ZM40.8989 66.8197C40.8989 61.8016 44.9813 57.7189 49.9997 57.7189C55.0181 57.7189 59.1005 61.8014 59.1005 66.8197C59.1005 71.8381 55.0179 75.9205 49.9995 75.9205C44.9812 75.9205 40.8989 71.8381 40.8989 66.8197ZM15.2665 63.7744C15.2665 59.1705 19.0122 55.425 23.6161 55.425C28.22 55.425 31.9655 59.1705 31.9655 63.7744C31.9655 68.3783 28.22 72.124 23.6161 72.124C19.0122 72.124 15.2665 68.3785 15.2665 63.7744ZM29.8364 91.4205H6.91123C7.71103 82.8645 14.9895 76.2061 23.6157 76.2061C28.4628 76.2061 33.0929 78.3502 36.2739 82.0059C33.3552 84.477 31.0989 87.7188 29.8364 91.4205ZM31.8997 96.6797C32.7032 87.3521 40.6149 80.075 49.9997 80.075C59.3845 80.075 67.2962 87.3518 68.0997 96.6797H31.8997ZM70.1628 91.4205C68.9003 87.7186 66.644 84.4768 63.7251 82.0057C66.9061 78.35 71.5362 76.2059 76.3833 76.2059C85.0101 76.2059 92.289 82.8641 93.0878 91.4203H70.1628V91.4205ZM25.2831 28.4105C23.9466 30.326 23.6257 32.9373 24.4245 35.3961C25.2233 37.8549 27.0177 39.7789 29.2249 40.5432C30.1661 40.8691 30.7628 41.69 30.7819 42.6857C30.8265 45.0209 32.1017 47.3223 34.1931 48.842C36.2851 50.3617 38.8685 50.8637 41.1021 50.1844C42.0556 49.8949 43.0202 50.2082 43.621 51.0025C45.0296 52.8654 47.4142 53.9777 49.9993 53.9777H49.9995C52.5845 53.9777 54.9692 52.8656 56.3778 51.0027C56.9786 50.208 57.9444 49.8949 58.8966 50.1844C61.1312 50.8635 63.714 50.3617 65.8058 48.842C67.8972 47.3227 69.1724 45.0213 69.2171 42.6861C69.2362 41.69 69.8327 40.8691 70.7741 40.5432C72.9811 39.7791 74.7755 37.8551 75.5745 35.3963C76.3733 32.9377 76.0524 30.3264 74.7159 28.4107C74.146 27.5938 74.1458 26.5791 74.7157 25.7623C76.0522 23.8467 76.3731 21.2354 75.5743 18.7766C74.7755 16.3178 72.9811 14.3937 70.7739 13.6295C69.8327 13.3037 69.236 12.4826 69.2169 11.4869C69.1724 9.15195 67.8972 6.85059 65.806 5.33086C63.7144 3.81113 61.1315 3.30957 58.8966 3.98828C57.9433 4.27773 56.9782 3.96445 56.3776 3.17012C54.9696 1.30762 52.5853 0.195312 50.0001 0.195312C49.9999 0.195312 49.9997 0.195312 49.9995 0.195312C47.4145 0.195312 45.03 1.30723 43.6212 3.17012C43.0202 3.96445 42.0552 4.27871 41.1024 3.98867C38.8685 3.30957 36.2849 3.81113 34.1935 5.33066C32.1019 6.8502 30.8267 9.15137 30.7819 11.4867C30.7628 12.4828 30.1665 13.3039 29.2251 13.6297C27.0181 14.3937 25.2235 16.3178 24.4245 18.7764C23.6255 21.2352 23.9464 23.8467 25.2829 25.7623C25.8528 26.5791 25.853 27.5938 25.2831 28.4105ZM27.8458 23.974C27.0665 22.8568 26.8985 21.275 27.3966 19.7422C27.8948 18.2094 28.9604 17.0281 30.2474 16.5826C32.4259 15.8287 33.8622 13.852 33.9062 11.5467C33.9323 10.1848 34.7263 8.80645 36.0302 7.85898C37.3337 6.91191 38.8899 6.58223 40.1936 6.97871C42.3995 7.64883 44.7229 6.89395 46.1138 5.05488C46.9352 3.96875 48.388 3.32031 49.9995 3.32031H49.9999C51.6114 3.32031 53.064 3.96875 53.8854 5.05527C55.2759 6.89414 57.6005 7.64902 59.8056 6.97871C61.1097 6.58281 62.6657 6.91211 63.9694 7.85957C65.2731 8.80684 66.0669 10.1854 66.0931 11.5471C66.1372 13.8521 67.5733 15.8289 69.7519 16.5828C71.039 17.0285 72.1046 18.2096 72.6026 19.7426C73.1007 21.2754 72.9325 22.8572 72.1532 23.9742C70.8339 25.865 70.8339 28.3082 72.1534 30.199C72.9327 31.3162 73.1007 32.8979 72.6026 34.4309C72.1046 35.9637 71.039 37.1447 69.7519 37.5902C67.5733 38.3443 66.137 40.3211 66.0931 42.6262C66.0669 43.9881 65.2729 45.3664 63.969 46.3139C62.6655 47.2611 61.1095 47.5906 59.8056 47.1943C57.5995 46.524 55.2761 47.2791 53.8854 49.118C53.064 50.2043 51.6112 50.8529 49.9995 50.8529C48.3876 50.8529 46.9351 50.2043 46.1136 49.1178C45.0599 47.7242 43.4702 46.9533 41.8021 46.9533C41.269 46.9533 40.7276 47.032 40.1935 47.1943C38.8901 47.5902 37.3339 47.2613 36.0302 46.3139C34.7265 45.3664 33.9325 43.9879 33.9063 42.626C33.8622 40.3213 32.4263 38.3445 30.2476 37.5902C28.9604 37.1445 27.8948 35.9635 27.3968 34.4305C26.8987 32.8977 27.0667 31.3158 27.846 30.199C29.1651 28.3082 29.1651 25.8648 27.8458 23.974ZM49.9995 42.858C58.6958 42.858 65.771 35.7828 65.771 27.0865C65.771 18.39 58.6958 11.3148 49.9995 11.3148C41.303 11.3148 34.2278 18.39 34.2278 27.0865C34.228 35.7828 41.303 42.858 49.9995 42.858ZM49.9995 14.4398C56.9728 14.4398 62.646 20.1131 62.646 27.0865C62.646 34.0598 56.9728 39.733 49.9995 39.733C43.0261 39.733 37.3528 34.0598 37.3528 27.0865C37.353 20.1131 43.0261 14.4398 49.9995 14.4398ZM47.8528 35.4719C48.9103 35.4719 49.9677 35.0691 50.7671 34.265L59.2577 25.6947C60.0308 24.9174 60.455 23.8852 60.4519 22.7887C60.4487 21.6922 60.0188 20.6623 59.2415 19.8895C58.4667 19.1189 57.4392 18.6949 56.3472 18.6949C56.3433 18.6949 56.3394 18.6951 56.3353 18.6951C55.2388 18.6982 54.2091 19.1279 53.4358 19.9055C53.4352 19.9061 53.4345 19.9068 53.4337 19.9076L47.8038 25.5904L46.5149 24.334C44.8925 22.7555 42.2882 22.7914 40.7093 24.4145C39.1311 26.0371 39.1673 28.6414 40.7886 30.2184L44.9915 34.3148C45.7849 35.0869 46.8188 35.4719 47.8528 35.4719ZM42.9497 26.5934C43.1417 26.3959 43.3976 26.2967 43.6532 26.2967C43.8995 26.2967 44.1456 26.3887 44.3351 26.5729L46.7323 28.91C47.3462 29.5084 48.3288 29.5004 48.9331 28.8908L55.653 22.1078C55.8374 21.923 56.0827 21.8207 56.344 21.8199H56.347C56.6077 21.8199 56.853 21.9213 57.038 22.1053C57.2235 22.2898 57.3263 22.5355 57.3269 22.7975C57.3274 23.0594 57.2263 23.3057 57.0396 23.4934L48.5489 32.0637C48.1724 32.4426 47.554 32.4479 47.1718 32.076L42.9687 27.9793C42.5815 27.6027 42.5729 26.9809 42.9497 26.5934Z" fill="#2A3847"/>
</svg>
