<svg width="101" height="100" viewBox="0 0 101 100" fill="none" xmlns="http://www.w3.org/2000/svg">
<path d="M45.4671 44.2662C45.2549 44.5491 45.1638 44.9047 45.2138 45.2548C45.2639 45.6049 45.4509 45.9207 45.7338 46.1329C47.3524 47.3372 49.3162 47.9877 51.3338 47.9877C53.3513 47.9877 55.3151 47.3372 56.9338 46.1329C57.0739 46.0279 57.1919 45.8962 57.2811 45.7456C57.3703 45.5949 57.4289 45.4281 57.4537 45.2548C57.4785 45.0815 57.4689 44.905 57.4254 44.7353C57.3819 44.5657 57.3055 44.4063 57.2004 44.2662C57.0954 44.1262 56.9638 44.0082 56.8131 43.9189C56.6624 43.8297 56.4957 43.7711 56.3223 43.7463C56.149 43.7216 55.9725 43.7312 55.8029 43.7746C55.6333 43.8181 55.4739 43.8945 55.3338 43.9996C54.1774 44.8594 52.7748 45.3237 51.3338 45.3237C49.8928 45.3237 48.4902 44.8594 47.3338 43.9996C47.0509 43.7874 46.6953 43.6963 46.3452 43.7463C45.9951 43.7963 45.6793 43.9834 45.4671 44.2662Z" fill="black"/>
<path d="M63.0799 51.36C62.7199 51.3467 62.3599 51.3333 61.9999 51.3333H61.3733C63.9828 48.884 65.6049 45.5638 65.9333 42H65.9999C67.0853 42.0039 68.1459 41.6753 69.0389 41.0583C69.932 40.4414 70.6147 39.5658 70.9951 38.5492C71.3756 37.5327 71.4356 36.424 71.1671 35.3723C70.8986 34.3206 70.3145 33.3764 69.4933 32.6667H69.9999C70.3535 32.6667 70.6927 32.5262 70.9427 32.2761C71.1928 32.0261 71.3333 31.687 71.3333 31.3333V26C71.3333 25.6464 71.1928 25.3072 70.9427 25.0572C70.6927 24.8071 70.3535 24.6667 69.9999 24.6667H69.5599C68.6516 20.5091 66.3484 16.7873 63.0329 14.1193C59.7173 11.4513 55.5889 9.99779 51.3333 10C47.0842 10.023 42.9685 11.4858 39.6581 14.1497C36.3477 16.8135 34.0381 20.5209 33.1066 24.6667H32.6666C32.313 24.6667 31.9738 24.8071 31.7238 25.0572C31.4737 25.3072 31.3333 25.6464 31.3333 26H24.6666C23.2521 26 21.8955 26.5619 20.8953 27.5621C19.8952 28.5623 19.3333 29.9188 19.3333 31.3333C19.3333 31.687 19.4737 32.0261 19.7238 32.2761C19.9738 32.5262 20.313 32.6667 20.6666 32.6667H33.1733C32.352 33.3764 31.7679 34.3206 31.4994 35.3723C31.2309 36.424 31.2909 37.5327 31.6714 38.5492C32.0518 39.5658 32.7345 40.4414 33.6276 41.0583C34.5206 41.6753 35.5812 42.0039 36.6666 42H36.7333C37.0616 45.5638 38.6837 48.884 41.2933 51.3333H40.6666C40.3066 51.3333 39.9466 51.3467 39.5733 51.36C34.4653 51.6397 29.6587 53.866 26.1419 57.5811C22.6252 61.2962 20.6658 66.2177 20.6666 71.3333V88.6667C20.6666 89.0203 20.8071 89.3594 21.0571 89.6095C21.3072 89.8595 21.6463 90 21.9999 90H80.6666C81.0202 90 81.3593 89.8595 81.6094 89.6095C81.8594 89.3594 81.9999 89.0203 81.9999 88.6667V71.3333C82.0006 66.2155 80.0393 61.2922 76.5197 57.5767C73.0002 53.8613 68.1903 51.6364 63.0799 51.36ZM31.3333 30H22.3599C22.5921 29.5936 22.9279 29.256 23.3331 29.0217C23.7384 28.7875 24.1985 28.665 24.6666 28.6667H31.3333V30ZM65.9999 39.3333V34C66.7072 34 67.3854 34.281 67.8855 34.7811C68.3856 35.2811 68.6666 35.9594 68.6666 36.6667C68.6666 37.3739 68.3856 38.0522 67.8855 38.5523C67.3854 39.0524 66.7072 39.3333 65.9999 39.3333ZM62.6399 17.36C64.6629 19.378 66.1085 21.901 66.8266 24.6667H60.6666V24.1733C60.6619 20.7334 59.4544 17.4035 57.2533 14.76L56.0933 13.3867C58.5686 14.1536 60.817 15.5182 62.6399 17.36ZM52.6666 13.44L55.1999 16.48C57.0062 18.6369 57.9973 21.36 57.9999 24.1733V24.6667H52.6666V13.44ZM49.9999 13.44V24.6667H44.6666V24.1733C44.6692 21.36 45.6603 18.6369 47.4666 16.48L49.9999 13.44ZM46.5333 13.4267L45.4133 14.76C43.2121 17.4035 42.0046 20.7334 41.9999 24.1733V24.6667H35.8399C36.5341 22.0455 37.8778 19.6415 39.7469 17.677C41.6159 15.7124 43.9499 14.2506 46.5333 13.4267ZM36.6666 39.3333C35.9593 39.3333 35.2811 39.0524 34.781 38.5523C34.2809 38.0522 33.9999 37.3739 33.9999 36.6667C33.9999 35.9594 34.2809 35.2811 34.781 34.7811C35.2811 34.281 35.9593 34 36.6666 34V39.3333ZM33.9999 30V27.3333H68.6666V30H33.9999ZM39.3333 40.6667V32.6667H63.3333V40.6667C63.3333 43.8493 62.069 46.9015 59.8185 49.152C57.5681 51.4024 54.5159 52.6667 51.3333 52.6667C48.1507 52.6667 45.0984 51.4024 42.848 49.152C40.5975 46.9015 39.3333 43.8493 39.3333 40.6667ZM59.6266 54C58.6341 55.2476 57.373 56.2552 55.937 56.9478C54.5011 57.6404 52.9275 58.0001 51.3333 58.0001C49.739 58.0001 48.1654 57.6404 46.7295 56.9478C45.2935 56.2552 44.0324 55.2476 43.0399 54H45.2533C47.1599 54.8782 49.2341 55.3329 51.3333 55.3329C53.4324 55.3329 55.5066 54.8782 57.4133 54H59.6266ZM33.9999 87.3333H23.3333V76.6667H33.9999V87.3333ZM79.3333 87.3333H68.6666V76.6667H79.3333V87.3333ZM79.3333 74H67.3333C66.9796 74 66.6405 74.1405 66.3904 74.3905C66.1404 74.6406 65.9999 74.9797 65.9999 75.3333V87.3333H36.6666V75.3333C36.6666 74.9797 36.5261 74.6406 36.2761 74.3905C36.026 74.1405 35.6869 74 35.3333 74H23.3333V71.3333C23.3299 66.9037 25.0238 62.6411 28.0668 59.422C31.1097 56.203 35.2704 54.2722 39.6933 54.0267H39.8399C41.0038 56.0454 42.6788 57.7219 44.6964 58.8876C46.714 60.0533 49.0031 60.667 51.3333 60.667C53.6634 60.667 55.9525 60.0533 57.9701 58.8876C59.9877 57.7219 61.6627 56.0454 62.8266 54.0267H62.9599C67.3849 54.2695 71.5485 56.1991 74.5942 59.4183C77.6398 62.6376 79.3358 66.9017 79.3333 71.3333V74Z" fill="black"/>
<path d="M56.6666 38C57.0202 38 57.3593 37.8595 57.6094 37.6095C57.8594 37.3594 57.9999 37.0203 57.9999 36.6667V35.3333C57.9999 34.9797 57.8594 34.6406 57.6094 34.3905C57.3593 34.1405 57.0202 34 56.6666 34C56.313 34 55.9738 34.1405 55.7238 34.3905C55.4737 34.6406 55.3333 34.9797 55.3333 35.3333V36.6667C55.3333 37.0203 55.4737 37.3594 55.7238 37.6095C55.9738 37.8595 56.313 38 56.6666 38Z" fill="black"/>
<path d="M45.9998 38C46.3535 38 46.6926 37.8595 46.9426 37.6095C47.1927 37.3594 47.3332 37.0203 47.3332 36.6667V35.3333C47.3332 34.9797 47.1927 34.6406 46.9426 34.3905C46.6926 34.1405 46.3535 34 45.9998 34C45.6462 34 45.3071 34.1405 45.057 34.3905C44.807 34.6406 44.6665 34.9797 44.6665 35.3333V36.6667C44.6665 37.0203 44.807 37.3594 45.057 37.6095C45.3071 37.8595 45.6462 38 45.9998 38Z" fill="black"/>
</svg>
