<svg width="96" height="100" viewBox="0 0 96 100" fill="none" xmlns="http://www.w3.org/2000/svg">
<path d="M10.7233 90C10.0531 89.416 9.75108 88.9508 10.2436 88.0924C11.5513 85.813 12.6744 83.4133 14.137 81.2406C16.3046 78.0207 19.4986 76.1436 23.2205 75.1687C24.4862 74.8372 25.7812 74.6169 27.0639 74.3455C26.6393 72.7915 26.8404 72.2042 28.4359 71.3075C31.2114 69.7476 34.1369 68.5588 37.324 68.1264C37.731 68.0712 37.9588 67.9008 37.9148 67.4332C37.8736 66.9945 37.8325 66.5338 37.9196 66.109C38.189 64.7952 37.3738 64.1185 36.4871 63.4337C35.8784 62.9637 35.3039 62.4447 34.7479 61.9124C34.2143 61.4017 34.1353 60.6296 34.5169 60.1873C34.9419 59.6947 35.6829 59.6729 36.2847 60.1881C37.8841 61.5574 39.4656 62.9477 41.0568 64.3266C42.3002 65.4042 43.4974 66.5668 45.2396 66.792C45.5897 66.8373 45.9499 66.8434 46.3026 66.8214C47.9902 66.7162 49.6801 66.997 51.3755 66.5995C52.664 66.2974 53.5717 65.4915 54.5026 64.7045C56.5829 62.9461 58.6635 61.1817 60.6423 59.3121C61.9853 58.0433 62.9838 56.4543 63.1952 54.5818C63.4147 52.6376 63.4506 50.6682 63.4827 48.7085C63.5274 45.9755 63.4831 43.2411 63.503 40.5075C63.507 39.9519 63.3919 39.6444 62.8395 39.3183C61.7556 38.6783 61.3911 37.491 61.0145 36.3359C60.2813 34.0874 59.4842 31.8598 58.7022 29.5906C57.7172 30.2591 56.8024 30.966 55.8093 31.5366C53.4578 32.8875 51.082 34.1983 48.6815 35.4596C48.3171 35.6511 47.6779 35.6592 47.3185 35.4668C44.578 33.9999 41.8641 32.4817 39.1694 30.9317C38.5379 30.5684 38.0113 30.0229 37.3551 29.4959C36.6521 31.5596 35.9838 33.5987 35.2585 35.6173C34.9051 36.601 34.4699 37.5583 34.0181 38.5019C33.8873 38.7752 33.6086 39.0434 33.332 39.1683C32.6285 39.486 32.6137 40.0331 32.6155 40.6855C32.6268 44.928 32.5693 49.171 32.6239 53.4127C32.6356 54.3218 32.9971 55.2307 33.2303 56.1311C33.4104 56.8264 33.1957 57.3595 32.5798 57.5959C31.9588 57.8341 31.3449 57.604 31.0822 56.9538C30.5564 55.6528 30.2177 54.2999 30.2625 52.8858C30.2782 52.391 30.1508 52.1135 29.6871 51.8692C26.6229 50.2547 24.7965 47.7163 24.1558 44.3146C23.8555 42.7208 23.8363 41.1723 24.7828 39.7524C24.8386 39.6687 24.8539 39.5352 24.9279 39.4898C25.8184 38.9445 25.7194 38.0763 25.7116 37.2174C25.6948 35.369 25.7017 33.5203 25.7086 31.6718C25.7122 30.6991 26.0172 30.3289 26.7845 30.3226C27.5616 30.3162 28.017 30.7542 28.0415 31.6428C28.0751 32.8656 28.0501 34.0899 28.0502 35.3136C28.0502 36.0143 28.0502 36.7149 28.0502 37.5081C29.1839 37.5081 30.3006 37.5823 31.3973 37.4669C31.7703 37.4277 32.2753 36.976 32.4098 36.6015C33.4698 33.6495 34.4614 30.6728 35.4487 27.6952C35.5203 27.4791 35.47 27.1469 35.3453 26.9529C34.0553 24.9462 33.3978 22.7385 33.1649 20.1079C32.3383 20.8377 31.5542 21.3954 30.9407 22.1013C29.8544 23.3512 29.0378 24.78 28.5202 26.3719C28.3095 27.0199 27.5404 27.3594 26.9704 27.128C26.3967 26.8952 26.1488 26.2343 26.3557 25.5689C27.479 21.9556 29.798 19.3444 33.0594 17.5063C33.28 17.3819 33.4983 17.1353 33.579 16.8984C34.7732 13.3937 37.1292 11.142 40.7309 10.2396C41.2948 10.0984 41.8911 10.0301 42.473 10.0265C45.8575 10.0059 49.2428 9.97498 52.6263 10.0351C53.8111 10.0562 54.997 10.2936 56.1716 10.4949C56.8128 10.6047 57.1462 11.33 56.9665 12.0188C56.845 12.4844 56.0513 12.8952 55.5291 12.827C54.1928 12.6524 52.8544 12.4081 51.5127 12.3784C48.5462 12.3129 45.577 12.3448 42.6091 12.3692C39.3402 12.396 36.2349 14.9851 35.7164 18.2267C35.1472 21.7859 36.2999 24.7743 38.6488 27.3825C39.0879 27.87 39.594 28.2973 40.2161 28.893C40.24 28.4186 40.2627 28.1742 40.263 27.9299C40.2652 25.9252 40.2584 23.9204 40.2648 21.9157C40.2679 20.9709 40.5532 20.6903 41.295 20.6218C42.0799 20.5492 42.5801 20.9902 42.5958 21.9221C42.6296 23.9263 42.6171 25.9315 42.6028 27.9361C42.5922 29.4175 43.2974 30.4954 44.4977 31.2527C45.4735 31.8684 46.4962 32.4137 47.5223 32.9433C47.7467 33.0591 48.1255 33.0781 48.345 32.9672C49.4634 32.4023 50.5683 31.8065 51.6485 31.1714C53.05 30.3473 53.4576 28.9659 53.5013 27.4715C53.5561 25.5986 53.5111 23.7228 53.5164 21.8482C53.5189 20.992 53.811 20.6518 54.5271 20.6368C55.3696 20.6191 55.8453 21.0268 55.8518 21.8601C55.8696 24.1377 55.858 26.4154 55.858 28.7571C56.3236 28.3675 56.8648 27.9964 57.3064 27.5309C58.9904 25.7553 60.069 23.6288 60.3681 21.2194C60.5977 19.3701 60.4881 17.4957 59.42 15.8141C58.9293 15.0414 59.0757 14.2843 59.6451 13.9678C60.1552 13.6842 61.0046 13.9838 61.3802 14.6413C61.7169 15.2307 62.0873 15.8334 62.2529 16.4789C62.4245 17.1479 62.7941 17.5224 63.3557 17.8276C65.8294 19.1718 67.6739 21.146 68.9219 23.6451C69.6794 25.1619 70.2164 26.7713 70.2459 28.5047C70.2979 31.5641 70.3858 34.6232 70.3938 37.6826C70.3956 38.3753 70.5615 38.9242 70.994 39.4285C71.6866 40.236 71.9448 41.1616 71.9837 42.2362C72.0992 45.4273 70.9335 48.0675 68.663 50.2272C67.9756 50.8811 67.1206 51.3724 66.2989 51.8659C65.907 52.1013 65.6909 52.2977 65.7019 52.7969C65.7742 56.0622 64.4772 58.786 62.2185 61.0529C61.062 62.2137 59.7687 63.2399 58.5167 64.3027C58.141 64.6216 58.0259 64.9751 58.0499 65.4496C58.0855 66.1507 58.02 66.8586 58.0834 67.5558C58.102 67.7603 58.3898 68.0752 58.5913 68.1075C60.8189 68.4642 62.9638 69.0995 65.0111 70.0298C66.082 70.5165 67.0955 71.1315 68.1253 71.7059C68.9855 72.1858 69.3365 72.955 69.0739 73.8903C68.9466 74.3436 69.0565 74.4798 69.5013 74.5431C70.3753 74.6675 71.2435 74.837 72.1104 75.0065C72.8708 75.1552 73.1983 75.675 73.0589 76.4654C72.9672 76.9846 72.2537 77.4442 71.6182 77.3394C70.6961 77.1874 69.7814 76.9908 68.8628 76.8169C68.62 76.771 68.3745 76.7387 68.1603 76.705C67.8062 77.7755 67.4715 78.7784 67.1431 79.7833C66.8901 80.5575 66.3748 80.9563 65.5475 80.9411C65.0089 80.9312 64.47 80.9392 63.8597 80.9392C64.3024 81.5529 64.78 82.0621 65.0673 82.6623C65.2931 83.1343 65.4599 83.76 65.3461 84.2455C65.003 85.7086 64.5441 87.1482 64.0578 88.5721C63.8829 89.0844 63.5015 89.5261 63.2143 90C62.9018 90 62.5894 90 62.277 90C61.5211 89.3624 61.5445 88.5852 61.8341 87.7321C62.2047 86.6398 62.5548 85.5399 62.8792 84.4331C63.0053 84.003 62.9676 83.6172 62.624 83.202C61.8966 82.3233 61.2348 81.3813 60.6381 80.4088C60.4469 80.0972 60.4371 79.5786 60.5383 79.2077C60.6662 78.7389 61.0886 78.5601 61.6205 78.5836C62.5807 78.6261 63.5449 78.5738 64.5059 78.6056C64.9343 78.6198 65.1299 78.4859 65.2585 78.0677C65.6418 76.8206 66.0309 75.5715 66.5066 74.3581C66.7805 73.6596 66.5351 73.344 65.9363 73.1024C64.0548 72.3435 62.1895 71.5415 60.2899 70.8314C59.6359 70.5869 58.8993 70.5638 58.1682 70.4338C58.1682 76.4584 58.1549 82.3349 58.1837 88.2113C58.1876 89.0138 57.944 89.5877 57.2778 90C57.0174 90 56.7571 90 56.4967 90C55.9723 89.6658 55.7143 89.1996 55.7101 88.5659C55.7033 87.5352 55.9362 86.3858 55.5567 85.5074C55.173 84.6194 54.1642 84.0036 53.4363 83.2616C53.0926 82.9112 52.7676 82.5427 52.43 82.1862C52.322 82.072 52.201 81.9701 52.0305 81.8108C51.8982 82.8411 51.5372 83.7296 52.0191 84.6845C52.5495 85.7357 52.962 86.8469 53.4148 87.9366C53.8708 89.0341 53.793 89.3257 52.9036 90C52.6432 90 52.3828 90 52.1225 90C51.8199 89.6121 51.4443 89.2603 51.231 88.8284C50.8659 88.0887 50.6067 87.2972 50.2953 86.5306C49.737 85.1561 49.7347 85.1571 48.2805 85.1571C47.9175 85.1571 47.5406 85.2201 47.1941 85.1442C46.4331 84.9776 46.1375 85.4285 45.9072 86.005C45.7121 86.4933 45.5801 87.0145 45.3294 87.4713C44.8594 88.3278 44.767 89.4115 43.8426 90C43.5822 90 43.3219 90 43.0615 90C42.1947 89.3488 42.1227 89.1094 42.5367 88.092C42.915 87.1624 43.2696 86.2198 43.7076 85.3185C44.2491 84.2042 44.4887 83.1079 43.8597 81.8569C43.2938 82.4502 42.8399 83.0876 42.24 83.5243C40.5428 84.7599 39.8971 86.3696 40.2489 88.4138C40.372 89.129 40.0465 89.6277 39.4684 90C39.208 90 38.9476 90 38.6873 90C38.0977 89.647 37.9328 89.1205 37.9348 88.4496C37.9518 82.7507 37.9444 77.0517 37.9444 71.3527C37.9444 71.0752 37.9444 70.7977 37.9444 70.5285C36.1591 70.3683 31.2221 72.1386 29.3032 73.5985C29.7321 74.9249 30.1942 76.2485 30.5822 77.5935C30.8089 78.3795 31.2063 78.724 32.0532 78.6115C32.6669 78.5301 33.3002 78.5956 33.9247 78.5956C33.9767 78.5956 34.0288 78.5951 34.0808 78.5957C34.6123 78.6017 35.1522 78.5251 35.4557 79.1595C35.7621 79.8001 35.4685 80.3124 35.1503 80.7863C34.5828 81.6313 33.9102 82.407 33.3623 83.2633C33.1735 83.5585 33.1067 84.0361 33.1891 84.3814C33.4623 85.5262 33.7648 86.673 34.1796 87.7723C34.5206 88.676 34.4705 89.3927 33.6881 90C33.3757 90 33.0632 90 32.7508 90C32.5078 89.6273 32.169 89.2851 32.0386 88.8765C31.5278 87.275 31.0514 85.6605 30.6373 84.0318C30.5428 83.6604 30.6493 83.1592 30.8373 82.8119C31.1806 82.1774 31.6538 81.6132 32.1298 80.9392C31.5271 80.9392 31.0173 80.9398 30.5074 80.939C29.544 80.9376 29.1605 80.6514 28.8547 79.6986C28.5909 78.8768 28.3083 78.06 28.0796 77.2285C27.9467 76.7451 27.6486 76.6418 27.2276 76.7234C26.1884 76.9248 25.1469 77.1184 24.1148 77.3523C20.7359 78.1182 17.9444 79.8761 15.9682 82.6967C14.6861 84.5266 13.7436 86.5925 12.6147 88.5327C12.3085 89.059 11.8779 89.5129 11.5044 90C11.2441 90 10.9837 90 10.7233 90ZM40.3072 82.0109C40.3054 82.0488 40.3037 82.0868 40.302 82.1247C40.3391 82.0964 40.3763 82.068 40.4134 82.0396C41.8437 80.5785 43.2673 79.1109 44.7109 77.6631C44.9387 77.4347 45.2568 77.2962 45.5332 77.1162C43.4681 76.6863 41.887 75.8258 40.3072 74.8176C40.3072 77.284 40.3072 79.6474 40.3072 82.0109ZM55.7078 82.0404C55.7455 82.0666 55.7832 82.0927 55.8208 82.1188C55.817 82.0808 55.8131 82.0428 55.8092 82.0048C55.8092 79.6321 55.8092 77.2594 55.8092 74.9387C54.0781 75.6843 52.3936 76.4097 50.8949 77.0551C52.4004 78.6145 54.0541 80.3275 55.7078 82.0404ZM62.7746 20.2436C62.7067 22.7501 61.9353 24.9137 60.7347 26.9523C60.582 27.2116 60.4974 27.6231 60.5875 27.896C61.5471 30.8034 62.5279 33.7044 63.5634 36.5854C63.6966 36.9559 64.1516 37.4336 64.4942 37.4654C65.6696 37.5745 66.8614 37.5073 68.0709 37.5073C68.0709 34.919 68.1021 32.4244 68.061 29.9309C68.0285 27.9616 67.6161 26.0532 66.6414 24.3283C65.7207 22.6992 64.5627 21.2542 62.7746 20.2436ZM55.8244 66.6705C55.4823 66.9454 55.3072 67.0758 55.1435 67.2193C54.1695 68.0727 53.0468 68.611 51.7877 68.9195C49.9289 69.375 48.0467 69.071 46.1781 69.1685C44.7516 69.2429 43.4417 68.877 42.2305 68.1546C41.589 67.7719 40.9852 67.3261 40.288 66.8576C40.288 67.9887 40.3874 69.0825 40.2631 70.1502C40.1044 71.5139 40.78 72.2951 41.7996 72.9778C44.0849 74.5081 46.5488 75.0399 49.3001 74.7258C51.4743 74.4776 53.3457 73.7048 54.9983 72.3374C55.3369 72.0572 55.763 71.6417 55.7871 71.2654C55.8793 69.8208 55.8244 68.3667 55.8244 66.6705ZM30.2656 39.852C29.7269 39.852 29.2374 39.8418 28.7485 39.854C27.4199 39.8872 26.3874 40.9771 26.3403 42.315C26.2407 45.1501 27.5182 47.3134 29.5923 49.0965C29.7635 49.2437 29.9922 49.3241 30.2656 49.475C30.2656 46.2066 30.2656 43.0849 30.2656 39.852ZM65.8506 49.3729C68.588 47.8474 69.9616 44.5477 69.5991 41.6993C69.5614 41.4028 69.3248 41.1134 69.1313 40.8581C68.2778 39.7324 67.0875 39.7693 65.8506 39.9045C65.8506 43.0658 65.8506 46.1851 65.8506 49.3729ZM46.5554 82.7945C47.506 82.7945 48.4343 82.7945 49.4587 82.7945C49.6163 81.9014 49.8025 80.9998 49.9175 80.0892C49.9469 79.8557 49.8213 79.5216 49.6492 79.3559C47.4971 77.2829 48.4707 77.2969 46.2784 79.3881C46.1103 79.5485 46.015 79.8997 46.0501 80.1381C46.1805 81.0244 46.3794 81.9005 46.5554 82.7945Z" fill="black"/>
<path d="M84.4615 90C83.993 89.3266 83.4772 88.6809 83.0655 87.9745C82.0497 86.2315 81.1316 84.43 80.0784 82.7108C79.2551 81.367 78.0276 80.3927 76.7336 79.5017C76.3841 79.2611 76.0004 78.8809 75.9153 78.5014C75.8379 78.1561 76.0361 77.5358 76.3094 77.3787C76.6559 77.1796 77.3391 77.1378 77.6363 77.3561C78.8667 78.2596 80.1119 79.1866 81.1568 80.2896C83.2221 82.4697 84.2808 85.2936 85.694 87.8867C86.2616 88.928 86.1535 89.3119 85.2426 90C84.9822 90 84.7219 90 84.4615 90Z" fill="black"/>
<path d="M47.7959 60.198C46.4679 60.0433 45.1735 59.7617 44.0215 59.0192C43.4216 58.6325 43.1692 57.9009 43.4361 57.3825C43.692 56.8855 44.4508 56.7454 45.141 56.9954C45.9835 57.3006 46.8324 57.6876 47.7062 57.7811C48.7349 57.8912 49.7492 57.5884 50.6798 57.0551C51.3346 56.6798 52.2759 56.8379 52.5708 57.2913C52.9441 57.8654 52.7619 58.4705 52.1148 58.9192C50.8172 59.819 49.321 60.0118 47.7959 60.198Z" fill="black"/>
<path d="M40.8158 37.4365C42.074 37.8168 43.3117 38.1236 44.4955 38.5726C45.2757 38.8686 45.4093 39.4822 45.0246 40.1666C44.6529 40.828 44.0805 40.913 43.3638 40.5816C41.7756 39.8472 40.1514 39.7783 38.5414 40.5499C37.6792 40.963 37.2104 40.8486 36.8435 40.1072C36.4955 39.4041 36.7018 38.7886 37.5289 38.4756C38.5749 38.0799 39.6629 37.795 40.8158 37.4365Z" fill="black"/>
<path d="M54.9863 37.4307C56.2238 37.8236 57.43 38.1537 58.5937 38.5955C59.3179 38.8704 59.5008 39.5235 59.1714 40.135C58.8272 40.7741 58.2317 40.9645 57.5519 40.6291C55.8761 39.8021 54.2041 39.7789 52.5225 40.6115C51.8451 40.9469 51.1943 40.7391 50.904 40.1161C50.6675 39.6087 50.9198 38.7595 51.4803 38.5532C52.6036 38.1399 53.7603 37.8171 54.9863 37.4307Z" fill="black"/>
<path d="M51.1822 51.5552C50.9344 51.8697 50.7518 52.3169 50.4277 52.476C48.8619 53.2449 47.255 53.3959 45.6567 52.5229C45.0029 52.1659 44.753 51.5476 45.0163 50.9438C45.2811 50.3368 45.7888 50.1292 46.5465 50.4456C47.5416 50.861 48.478 50.812 49.467 50.4118C50.3605 50.0502 51.0299 50.529 51.1822 51.5552Z" fill="black"/>
<path d="M56.1872 44.8093C56.1872 45.3033 56.1732 45.7979 56.1908 46.2913C56.2131 46.92 55.8048 47.2165 55.3025 47.3377C54.7316 47.4754 54.0835 47.304 54.0315 46.678C53.9267 45.4167 53.9275 44.1333 54.0391 42.8727C54.1017 42.1654 54.8065 42.0946 55.386 42.2127C55.8929 42.3161 56.216 42.6635 56.1925 43.2493C56.1717 43.7685 56.1882 44.2892 56.1872 44.8093Z" fill="black"/>
<path d="M42.1265 44.7074C42.1265 45.1758 42.1351 45.6443 42.1245 46.1124C42.1077 46.8491 41.6323 47.3547 40.9704 47.3566C40.2849 47.3585 39.8008 46.8797 39.7868 46.1404C39.7696 45.2301 39.7683 44.3188 39.7869 43.4085C39.804 42.5742 40.2206 42.1761 41.0024 42.196C41.6819 42.2134 42.1279 42.7146 42.1267 43.4585C42.126 43.8748 42.1266 44.2911 42.1265 44.7074Z" fill="black"/>
</svg>
