<svg width="101" height="100" viewBox="0 0 101 100" fill="none" xmlns="http://www.w3.org/2000/svg">
<g clip-path="url(#clip0_6062_6654)">
<path d="M80.5314 64.1935H79.4713V57.7419C79.4713 55.6076 78.0444 53.871 76.2908 53.871C74.5372 53.871 73.1103 55.6076 73.1103 57.7419V64.1935H70.99V59.0323C70.99 57.6094 70.0388 56.4516 68.8697 56.4516V33.2258H62.5088V40.9677H59.9868C59.3227 40.4502 58.5867 40.0571 57.8006 39.8181L54.7727 38.8968C57.5239 37.4966 59.3011 34.279 59.3271 30.6452H60.3885C62.1421 30.6452 63.5689 28.9087 63.5689 26.7742C63.5689 25.7848 63.262 24.8815 62.7586 24.1965C63.2902 22.8585 63.5689 21.391 63.5689 19.8924C63.5689 14.4377 59.9228 10 55.4411 10H46.253C41.7713 10 38.1252 14.4377 38.1252 19.8924C38.1252 21.3908 38.4038 22.8584 38.9355 24.1963C38.4321 24.8815 38.1252 25.7848 38.1252 26.7742C38.1252 28.9087 39.552 30.6452 41.3056 30.6452H42.367C42.3928 34.279 44.1702 37.4966 46.9214 38.8968L43.8935 39.8181C43.1074 40.0573 42.3714 40.4502 41.7073 40.9677H39.1853V33.2258H32.8244V56.4516C31.6553 56.4516 30.7041 57.6094 30.7041 59.0323V64.1935H28.5837V57.7419C28.5837 55.6076 27.1569 53.871 25.4033 53.871C23.6496 53.871 22.2228 55.6076 22.2228 57.7419V64.1935H21.1626C19.409 64.1935 17.9822 65.93 17.9822 68.0645C17.9822 70.199 19.409 71.9355 21.1626 71.9355H22.2228V78.3871C22.2228 80.5214 23.6496 82.2581 25.4033 82.2581C27.1569 82.2581 28.5837 80.5214 28.5837 78.3871V71.9355H30.7041C30.7041 73.3584 31.6553 74.5161 32.8244 74.5161V79.8994C31.5905 80.4319 30.7041 81.8661 30.7041 83.5484V86.129C30.7041 88.2635 32.1309 90 33.8845 90C35.6382 90 37.065 88.2635 37.065 86.129V83.5484C37.065 81.8663 36.1786 80.4321 34.9447 79.8994V74.5161H37.065H39.1853V86.129C39.1853 88.2635 40.6122 90 42.3658 90H48.7267C49.5407 90 50.284 89.6255 50.847 89.0111C51.4101 89.6255 52.1534 90 52.9674 90H59.3283C61.0819 90 62.5088 88.2635 62.5088 86.129V74.5161H64.6291H66.7494V79.8994C65.5155 80.4319 64.6291 81.8661 64.6291 83.5484V86.129C64.6291 88.2635 66.0559 90 67.8096 90C69.5632 90 70.99 88.2635 70.99 86.129V83.5484C70.99 81.8663 70.1036 80.4321 68.8697 79.8994V74.5161C70.0388 74.5161 70.99 73.3584 70.99 71.9355H73.1103V78.3871C73.1103 80.5214 74.5372 82.2581 76.2908 82.2581C78.0444 82.2581 79.4713 80.5214 79.4713 78.3871V71.9355H80.5314C82.2851 71.9355 83.7119 70.199 83.7119 68.0645C83.7119 65.93 82.2851 64.1935 80.5314 64.1935ZM21.1626 69.3548C20.5781 69.3548 20.1025 68.776 20.1025 68.0645C20.1025 67.3531 20.5781 66.7742 21.1626 66.7742H22.2228V69.3548H21.1626ZM26.4634 78.3871C26.4634 79.0985 25.9878 79.6774 25.4033 79.6774C24.8187 79.6774 24.3431 79.0985 24.3431 78.3871V57.7419C24.3431 57.0305 24.8187 56.4516 25.4033 56.4516C25.9878 56.4516 26.4634 57.0305 26.4634 57.7419V78.3871ZM28.5837 69.3548V66.7742H30.7041V69.3548H28.5837ZM34.9447 86.129C34.9447 86.8405 34.4691 87.4193 33.8845 87.4193C33.3 87.4193 32.8244 86.8405 32.8244 86.129V83.5484C32.8244 82.8369 33.3 82.2581 33.8845 82.2581C34.4691 82.2581 34.9447 82.8369 34.9447 83.5484V86.129ZM68.8697 86.129C68.8697 86.8405 68.3941 87.4193 67.8096 87.4193C67.225 87.4193 66.7494 86.8405 66.7494 86.129V83.5484C66.7494 82.8369 67.225 82.2581 67.8096 82.2581C68.3941 82.2581 68.8697 82.8369 68.8697 83.5484V86.129ZM64.6291 59.0323V66.7742H61.9383C62.3003 66.0144 62.5088 65.1334 62.5088 64.1935C62.5088 63.0411 62.1967 61.9758 61.6701 61.1158C63.4096 60.1923 64.6291 58.0798 64.6291 55.6263C64.6291 55.2331 64.597 54.8381 64.5335 54.4523L63.2775 46.8092C63.0828 45.6247 62.6954 44.5206 62.1568 43.5484H66.7494V56.4516C65.5803 56.4516 64.6291 57.6094 64.6291 59.0323ZM41.3056 64.1935C41.3056 62.7706 42.2569 61.6129 43.4259 61.6129H43.6083C43.7982 62.2647 44.1276 62.8363 44.5529 63.2752C43.854 64.1956 43.4259 65.425 43.4259 66.7742C42.2569 66.7742 41.3056 65.6165 41.3056 64.1935ZM56.1478 77.7911C55.5235 77.3505 54.7996 77.0968 54.0275 77.0968C53.2555 77.0968 52.5315 77.3505 51.9072 77.7911V66.7742C51.9072 65.3513 52.8584 64.1935 54.0275 64.1935C55.1966 64.1935 56.1478 65.3513 56.1478 66.7742V77.7911ZM47.6666 64.1935C48.8357 64.1935 49.7869 65.3513 49.7869 66.7742V77.7911C49.1626 77.3505 48.4386 77.0968 47.6666 77.0968C46.8945 77.0968 46.1706 77.3505 45.5463 77.7911V66.7742C45.5463 65.3513 46.4975 64.1935 47.6666 64.1935ZM56.1478 60.3226C56.1478 61.034 55.6722 61.6129 55.0877 61.6129H46.6064C46.0219 61.6129 45.5463 61.034 45.5463 60.3226V59.0323H56.1478V60.3226ZM56.1478 56.4516H45.5463V50C45.5463 49.2885 46.0219 48.7097 46.6064 48.7097H55.0877C55.6722 48.7097 56.1478 49.2885 56.1478 50V56.4516ZM47.6666 79.6774C48.8357 79.6774 49.7869 80.8352 49.7869 82.2581H45.5463C45.5463 80.8352 46.4975 79.6774 47.6666 79.6774ZM54.0275 79.6774C55.1883 79.6774 56.133 80.8187 56.1478 82.2276V82.2581H51.9072C51.9072 80.8352 52.8584 79.6774 54.0275 79.6774ZM57.1412 63.2752C57.5663 62.8364 57.8958 62.2647 58.0858 61.6129H58.2681C59.4372 61.6129 60.3885 62.7706 60.3885 64.1935C60.3885 65.6165 59.4372 66.7742 58.2681 66.7742C58.2681 65.425 57.8401 64.1956 57.1412 63.2752ZM64.6291 35.8064H66.7494V40.9677H64.6291V35.8064ZM60.3885 28.0645H59.3283V25.4839H60.3885C60.973 25.4839 61.4486 26.0627 61.4486 26.7742C61.4486 27.4856 60.973 28.0645 60.3885 28.0645ZM40.2455 26.7742C40.2455 26.0627 40.7211 25.4839 41.3056 25.4839H42.3658V28.0645H41.3056C40.7211 28.0645 40.2455 27.4856 40.2455 26.7742ZM42.3658 21.9176V22.9032H41.3056C41.1327 22.9032 40.9631 22.9208 40.7976 22.9532C40.4351 21.9969 40.2455 20.9552 40.2455 19.8924C40.2455 15.8606 42.9404 12.5806 46.253 12.5806H55.4411C58.7537 12.5806 61.4486 15.8606 61.4486 19.8924C61.4486 20.9552 61.259 21.9969 60.8965 22.9531C60.731 22.9208 60.5614 22.9032 60.3885 22.9032H59.3283V21.6129C59.3283 18.0555 56.9504 15.1613 54.0275 15.1613V17.7419C55.3986 17.7419 56.5698 18.8032 57.0156 20.2863C55.0229 20.1124 53.1088 19.3165 51.4352 17.9585L49.7869 16.621V20.3176C48.31 20.2324 47.0233 19.055 46.5521 17.3339L46.1655 15.9224L45.0721 16.5877C43.4028 17.6037 42.3658 19.646 42.3658 21.9176ZM44.4861 30.5648V21.9176C44.4861 21.0892 44.7294 20.3145 45.1549 19.7139C46.1881 21.6715 47.9816 22.9032 49.9589 22.9032H51.9072V21.2521C53.5621 22.2248 55.3597 22.779 57.208 22.8837V30.565C57.208 33.2184 55.9001 35.5697 53.8759 36.5552L51.9072 37.5134V39.2868L50.847 41.2223L49.7869 39.2868V37.5134L47.8182 36.555C45.7941 35.5697 44.4861 33.2184 44.4861 30.5648ZM44.4078 42.3216L48.2591 41.1497L50.847 45.8745L53.435 41.1497L57.2863 42.3216C59.2632 42.9231 60.7989 44.8832 61.1984 47.3153L62.4544 54.9582C62.4905 55.1777 62.5088 55.4026 62.5088 55.6263C62.5088 57.5044 61.2533 59.0323 59.7104 59.0323H58.2681V56.4516H60.3885V53.871H58.2681V50C58.2681 47.8655 56.8413 46.129 55.0877 46.129H46.6064C44.8528 46.129 43.4259 47.8655 43.4259 50V53.871H41.3056V56.4516H43.4259V59.0323H41.9837C40.4407 59.0323 39.1853 57.5044 39.1853 55.6263C39.1853 55.4026 39.2036 55.1777 39.2397 54.9582L40.4957 47.3152C40.8952 44.8832 42.4309 42.9232 44.4078 42.3216ZM37.065 35.8064V40.9677H34.9447V35.8064H37.065ZM34.9447 43.5484H39.5372C38.9986 44.5206 38.6111 45.6248 38.4164 46.8092L37.1604 54.4523C37.0969 54.8381 37.0649 55.2329 37.0649 55.6263C37.0649 58.0798 38.2843 60.1923 40.0239 61.1158C39.4974 61.9758 39.1853 63.0411 39.1853 64.1935C39.1853 65.1334 39.3938 66.0144 39.7558 66.7742H37.065V59.0323C37.065 57.6094 36.1138 56.4516 34.9447 56.4516V43.5484ZM34.9447 71.9355H32.8244V59.0323H34.9447V66.7742V71.9355ZM37.065 69.3548H43.4259V71.9355H37.065V69.3548ZM43.4259 74.5161V82.2581H41.3056V74.5161H43.4259ZM48.7267 87.4193H42.3658C41.7812 87.4193 41.3056 86.8405 41.3056 86.129V84.8387H45.5463H49.7869V86.129C49.7869 86.8405 49.3113 87.4193 48.7267 87.4193ZM60.3885 86.129C60.3885 86.8405 59.9128 87.4193 59.3283 87.4193H52.9674C52.3828 87.4193 51.9072 86.8405 51.9072 86.129V84.8387H56.1478H60.3885V86.129ZM60.3885 82.2581H58.2681V74.5161H60.3885V82.2581ZM64.6291 71.9355H58.2681V69.3548H64.6291V71.9355ZM68.8697 71.9355H66.7494V66.7742V59.0323H68.8697L68.871 71.9355C68.871 71.9355 68.8706 71.9355 68.8697 71.9355ZM70.99 69.3548V66.7742H73.1103V69.3548H70.99ZM77.351 78.3871C77.351 79.0985 76.8754 79.6774 76.2908 79.6774C75.7063 79.6774 75.2307 79.0985 75.2307 78.3871V57.7419C75.2307 57.0305 75.7063 56.4516 76.2908 56.4516C76.8754 56.4516 77.351 57.0305 77.351 57.7419V78.3871ZM80.5314 69.3548H79.4713V66.7742H80.5314C81.116 66.7742 81.5916 67.3531 81.5916 68.0645C81.5916 68.776 81.116 69.3548 80.5314 69.3548Z" fill="black"/>
<path d="M47.6666 28.0645C48.2521 28.0645 48.7268 27.4868 48.7268 26.7742C48.7268 26.0616 48.2521 25.4839 47.6666 25.4839C47.0811 25.4839 46.6064 26.0616 46.6064 26.7742C46.6064 27.4868 47.0811 28.0645 47.6666 28.0645Z" fill="black"/>
<path d="M54.0274 28.0645C54.613 28.0645 55.0876 27.4868 55.0876 26.7742C55.0876 26.0616 54.613 25.4839 54.0274 25.4839C53.4419 25.4839 52.9673 26.0616 52.9673 26.7742C52.9673 27.4868 53.4419 28.0645 54.0274 28.0645Z" fill="black"/>
<path d="M54.8638 31.4948L54.9758 31.2224L53.0793 30.068L52.9674 30.3406C52.5632 31.3243 51.7507 31.9355 50.847 31.9355C49.9434 31.9355 49.1309 31.3243 48.7267 30.3403L48.6148 30.0679L46.7183 31.2222L46.8302 31.4945C47.5958 33.3584 49.1349 34.5161 50.847 34.5161C52.5592 34.5161 54.0983 33.3584 54.8638 31.4948Z" fill="black"/>
</g>
<defs>
<clipPath id="clip0_6062_6654">
<rect width="40.3226" height="80" fill="white" transform="translate(30.6665 10)"/>
</clipPath>
</defs>
</svg>
