<svg width="85" height="80" viewBox="0 0 85 80" fill="none" xmlns="http://www.w3.org/2000/svg">
<path d="M29.4736 29.4735C30.2487 29.4735 30.8771 28.8451 30.8771 28.07C30.8771 27.2949 30.2487 26.6665 29.4736 26.6665C28.6984 26.6665 28.0701 27.2949 28.0701 28.07C28.0701 28.8451 28.6984 29.4735 29.4736 29.4735Z" fill="black"/>
<path d="M18.2455 29.4735C19.0207 29.4735 19.649 28.8451 19.649 28.07C19.649 27.2949 19.0207 26.6665 18.2455 26.6665C17.4704 26.6665 16.842 27.2949 16.842 28.07C16.842 28.8451 17.4704 29.4735 18.2455 29.4735Z" fill="black"/>
<path d="M23.8596 63.1576C24.6347 63.1576 25.2631 62.5292 25.2631 61.7541C25.2631 60.979 24.6347 60.3506 23.8596 60.3506C23.0844 60.3506 22.4561 60.979 22.4561 61.7541C22.4561 62.5292 23.0844 63.1576 23.8596 63.1576Z" fill="black"/>
<path d="M23.8596 68.7719C24.6347 68.7719 25.2631 68.1435 25.2631 67.3683C25.2631 66.5932 24.6347 65.9648 23.8596 65.9648C23.0844 65.9648 22.4561 66.5932 22.4561 67.3683C22.4561 68.1435 23.0844 68.7719 23.8596 68.7719Z" fill="black"/>
<path d="M23.8596 74.3856C24.6347 74.3856 25.2631 73.7573 25.2631 72.9821C25.2631 72.207 24.6347 71.5786 23.8596 71.5786C23.0844 71.5786 22.4561 72.207 22.4561 72.9821C22.4561 73.7573 23.0844 74.3856 23.8596 74.3856Z" fill="black"/>
<path d="M32.2805 21.0527H28.07C27.6978 21.0527 27.3408 21.2006 27.0776 21.4638C26.8144 21.727 26.6665 22.084 26.6665 22.4562C26.6665 22.8285 26.8144 23.1855 27.0776 23.4487C27.3408 23.7119 27.6978 23.8597 28.07 23.8597H32.2805C32.6528 23.8597 33.0097 23.7119 33.273 23.4487C33.5362 23.1855 33.684 22.8285 33.684 22.4562C33.684 22.084 33.5362 21.727 33.273 21.4638C33.0097 21.2006 32.6528 21.0527 32.2805 21.0527Z" fill="black"/>
<path d="M19.6492 23.8597C20.0214 23.8597 20.3784 23.7119 20.6416 23.4487C20.9048 23.1855 21.0527 22.8285 21.0527 22.4562C21.0527 22.084 20.9048 21.727 20.6416 21.4638C20.3784 21.2006 20.0214 21.0527 19.6492 21.0527H15.4387C15.0664 21.0527 14.7094 21.2006 14.4462 21.4638C14.183 21.727 14.0352 22.084 14.0352 22.4562C14.0352 22.8285 14.183 23.1855 14.4462 23.4487C14.7094 23.7119 15.0664 23.8597 15.4387 23.8597H19.6492Z" fill="black"/>
<path d="M23.8588 39.0559C24.5644 39.0573 25.2634 38.9191 25.9154 38.6493C26.5674 38.3795 27.1597 37.9835 27.6581 37.484C27.9137 37.2193 28.0552 36.8648 28.052 36.4968C28.0488 36.1288 27.9012 35.7768 27.641 35.5165C27.3808 35.2563 27.0287 35.1087 26.6608 35.1055C26.2928 35.1023 25.9382 35.2438 25.6735 35.4994C25.1918 35.9799 24.5392 36.2497 23.8588 36.2497C23.1784 36.2497 22.5258 35.9799 22.0441 35.4994C21.7794 35.2438 21.4248 35.1023 21.0568 35.1055C20.6888 35.1087 20.3368 35.2563 20.0766 35.5165C19.8164 35.7768 19.6688 36.1288 19.6656 36.4968C19.6624 36.8648 19.8038 37.2193 20.0595 37.484C20.5579 37.9835 21.1502 38.3795 21.8022 38.6493C22.4542 38.9191 23.1532 39.0573 23.8588 39.0559Z" fill="black"/>
<path d="M31.2875 36.0804C31.5522 36.336 31.9067 36.4775 32.2747 36.4743C32.6427 36.4711 32.9947 36.3235 33.2549 36.0633C33.5152 35.8031 33.6628 35.451 33.666 35.0831C33.6692 34.7151 33.5277 34.3605 33.272 34.0958L31.8685 32.6923C31.6038 32.4367 31.2493 32.2952 30.8813 32.2984C30.5133 32.3016 30.1613 32.4492 29.9011 32.7094C29.6408 32.9696 29.4932 33.3217 29.49 33.6897C29.4868 34.0576 29.6283 34.4122 29.884 34.6769L31.2875 36.0804Z" fill="black"/>
<path d="M14.4461 36.0804C14.7093 36.3435 15.0662 36.4913 15.4384 36.4913C15.8105 36.4913 16.1674 36.3435 16.4306 36.0804L17.8341 34.6769C18.0898 34.4122 18.2313 34.0576 18.2281 33.6897C18.2249 33.3217 18.0773 32.9696 17.817 32.7094C17.5568 32.4492 17.2048 32.3016 16.8368 32.2984C16.4688 32.2952 16.1143 32.4367 15.8496 32.6923L14.4461 34.0958C14.183 34.359 14.0352 34.7159 14.0352 35.0881C14.0352 35.4603 14.183 35.8172 14.4461 36.0804Z" fill="black"/>
<path d="M9.82453 61.7544C9.4523 61.7544 9.09531 61.9023 8.8321 62.1655C8.5689 62.4287 8.42103 62.7857 8.42103 63.1579V65.9649H1.4035C1.03127 65.9649 0.674285 66.1128 0.411077 66.376C0.147869 66.6392 0 66.9962 0 67.3684V78.5964C0 78.9687 0.147869 79.3257 0.411077 79.5889C0.674285 79.8521 1.03127 80 1.4035 80C1.77574 80 2.13272 79.8521 2.39593 79.5889C2.65914 79.3257 2.80701 78.9687 2.80701 78.5964V68.7719H8.42103V78.5964C8.42103 78.9687 8.5689 79.3257 8.8321 79.5889C9.09531 79.8521 9.4523 80 9.82453 80C10.1968 80 10.5538 79.8521 10.817 79.5889C11.0802 79.3257 11.228 78.9687 11.228 78.5964V63.1579C11.228 62.7857 11.0802 62.4287 10.817 62.1655C10.5538 61.9023 10.1968 61.7544 9.82453 61.7544Z" fill="black"/>
<path d="M35.0875 12.6316C35.0875 12.2594 34.9397 11.9024 34.6765 11.6392C34.4133 11.376 34.0563 11.2281 33.684 11.2281C30.3447 11.2212 27.0965 10.1384 24.4209 8.14039L23.2981 7.29828C23.0003 7.07494 22.626 6.97905 22.2575 7.03169C21.889 7.08433 21.5565 7.2812 21.3332 7.57898C21.1099 7.87677 21.014 8.25108 21.0666 8.61957C21.1192 8.98806 21.3161 9.32055 21.6139 9.54389L22.7367 10.386C25.8988 12.7474 29.7376 14.027 33.684 14.0351C34.0563 14.0351 34.4133 13.8872 34.6765 13.624C34.9397 13.3608 35.0875 13.0038 35.0875 12.6316Z" fill="black"/>
<path d="M68.7717 44.9124V43.8008C70.7909 42.4825 72.4732 40.7095 73.6838 38.6239C74.8944 36.5384 75.5996 34.1982 75.7429 31.791C77.3912 31.2173 78.8208 30.1463 79.8347 28.7258C80.8485 27.3052 81.3966 25.605 81.4033 23.8598C81.4044 22.7387 81.0679 21.6432 80.4377 20.716C81.0692 19.5223 81.4006 18.1928 81.4033 16.8423C81.3984 12.7492 79.7703 8.82517 76.8761 5.93093C73.9818 3.03669 70.0578 1.40858 65.9647 1.40375C65.5925 1.40375 65.2355 1.55162 64.9723 1.81483C64.7091 2.07803 64.5612 2.43502 64.5612 2.80725C64.5612 3.17949 64.7091 3.53647 64.9723 3.79968C65.2355 4.06289 65.5925 4.21076 65.9647 4.21076C69.3137 4.21447 72.5244 5.54649 74.8925 7.91455C77.2605 10.2826 78.5925 13.4933 78.5963 16.8423C78.5918 17.5192 78.4629 18.1895 78.2159 18.8198C77.461 18.4469 76.6312 18.2506 75.7893 18.2458C75.7893 17.8736 75.6414 17.5166 75.3782 17.2534C75.115 16.9902 74.758 16.8423 74.3857 16.8423C71.6757 16.8405 68.9758 16.5106 66.3451 15.8598C66.1661 15.8157 65.9802 15.8072 65.798 15.8349C65.6157 15.8627 65.4407 15.926 65.283 16.0213C65.1252 16.1166 64.9878 16.2421 64.8785 16.3906C64.7692 16.539 64.6903 16.7075 64.6461 16.8865C64.602 17.0655 64.5935 17.2514 64.6212 17.4336C64.6489 17.6159 64.7123 17.7908 64.8076 17.9486C64.9029 18.1064 65.0284 18.2438 65.1769 18.3531C65.3253 18.4623 65.4938 18.5413 65.6728 18.5855C68.0681 19.1762 70.5171 19.5233 72.9822 19.6212V30.8773C72.9822 34.2274 71.6514 37.4403 69.2825 39.8092C66.9137 42.1781 63.7008 43.5089 60.3507 43.5089C57.0006 43.5089 53.7877 42.1781 51.4189 39.8092C49.05 37.4403 47.7192 34.2274 47.7192 30.8773V19.2844C49.1116 18.7851 50.3893 18.0106 51.476 17.007C52.5628 16.0035 53.4364 14.7914 54.0448 13.443C55.9666 14.7269 58.0051 15.8269 60.1332 16.7286C60.4742 16.8665 60.8557 16.865 61.1956 16.7244C61.5355 16.5839 61.8067 16.3155 61.9507 15.977C62.0947 15.6385 62.1001 15.2571 61.9657 14.9147C61.8313 14.5723 61.5679 14.2963 61.2321 14.1462C58.9768 13.1924 56.8322 11.9956 54.8363 10.5771L54.1486 10.0858C53.9625 9.95299 53.7468 9.86764 53.5202 9.83719C53.2935 9.80674 53.0629 9.83211 52.8484 9.9111C52.6338 9.9901 52.4418 10.1203 52.289 10.2904C52.1362 10.4606 52.0273 10.6654 51.9718 10.8872C51.6108 12.3369 50.862 13.661 49.8058 14.7175C48.7495 15.774 47.4256 16.5231 45.976 16.8844C45.6722 16.9602 45.4025 17.1353 45.2098 17.382C45.017 17.6287 44.9122 17.9327 44.9122 18.2458C43.8133 18.2463 42.7391 18.5715 41.8244 19.1805C40.2026 17.3844 39.3027 15.0518 39.2981 12.6318V4.21076H60.3507C60.7229 4.21076 61.0799 4.06289 61.3431 3.79968C61.6063 3.53647 61.7542 3.17949 61.7542 2.80725C61.7542 2.43502 61.6063 2.07803 61.3431 1.81483C61.0799 1.55162 60.7229 1.40375 60.3507 1.40375H37.8946C37.5224 1.40375 37.1654 1.55162 36.9022 1.81483C36.639 2.07803 36.4911 2.43502 36.4911 2.80725V4.67251C34.2436 2.75747 31.5917 1.37602 28.7343 0.631719C25.8769 -0.112579 22.8881 -0.200413 19.9919 0.3748C17.0957 0.950012 14.3673 2.17335 12.0112 3.95311C9.65514 5.73286 7.73247 8.02286 6.38736 10.6514C6.21669 10.9824 6.18447 11.3675 6.29778 11.7222C6.41109 12.0769 6.66065 12.372 6.99157 12.5427C7.32248 12.7133 7.70764 12.7456 8.06231 12.6322C8.41699 12.5189 8.71212 12.2694 8.88279 11.9385C10.1356 9.4973 11.9672 7.4001 14.2175 5.83009C16.4678 4.26008 19.0683 3.26504 21.7919 2.93192C24.5154 2.5988 27.2791 2.93772 29.8415 3.91909C32.4038 4.90045 34.6869 6.49439 36.4911 8.56162V12.6318C36.4941 14.0586 36.7404 15.4745 37.2195 16.8184C34.341 16.7564 31.4822 16.3262 28.7129 15.5384C28.3539 15.4366 27.9691 15.4816 27.6433 15.6635C27.3174 15.8454 27.0772 16.1492 26.9754 16.5083C26.8736 16.8673 26.9185 17.252 27.1004 17.5779C27.2823 17.9037 27.5862 18.144 27.9452 18.2458C30.7298 19.039 33.5983 19.5006 36.4911 19.6212V30.8773C36.4911 34.2274 35.1603 37.4403 32.7914 39.8092C30.4226 42.1781 27.2097 43.5089 23.8596 43.5089C20.5095 43.5089 17.2966 42.1781 14.9277 39.8092C12.5589 37.4403 11.228 34.2274 11.228 30.8773V19.2844C12.6205 18.7848 13.8982 18.01 14.985 17.0062C16.0717 16.0024 16.9453 14.7901 17.5536 13.4416C19.1163 14.4809 20.7551 15.4009 22.4561 16.1939C22.6231 16.272 22.8038 16.3165 22.988 16.3248C23.1722 16.3331 23.3562 16.3051 23.5295 16.2422C23.7029 16.1794 23.8621 16.0831 23.9982 15.9587C24.1343 15.8343 24.2446 15.6844 24.3227 15.5174C24.4009 15.3504 24.4454 15.1697 24.4537 14.9855C24.462 14.8013 24.4339 14.6173 24.3711 14.444C24.3083 14.2706 24.2119 14.1114 24.0876 13.9753C23.9632 13.8392 23.8132 13.7289 23.6463 13.6507C21.7883 12.7891 20.0126 11.7603 18.341 10.5771L17.6533 10.0858C17.4672 9.95299 17.2514 9.86764 17.0248 9.83719C16.7982 9.80674 16.5676 9.83211 16.353 9.9111C16.1385 9.9901 15.9464 10.1203 15.7937 10.2904C15.6409 10.4606 15.532 10.6654 15.4765 10.8872C15.1158 12.3366 14.3675 13.6606 13.3118 14.7171C12.256 15.7735 10.9326 16.5228 9.48349 16.8844C9.17999 16.9604 8.91059 17.1357 8.7181 17.3824C8.5256 17.629 8.42104 17.9329 8.42104 18.2458C7.89758 18.2527 7.37776 18.334 6.87718 18.4872C7.04841 17.7195 7.207 16.97 7.35437 16.2528C7.39622 16.0704 7.40116 15.8815 7.3689 15.6971C7.33664 15.5128 7.26784 15.3367 7.16654 15.1793C7.06524 15.022 6.93349 14.8865 6.77904 14.7808C6.62459 14.6751 6.45055 14.6013 6.26718 14.5639C6.08381 14.5264 5.8948 14.5261 5.71128 14.5627C5.52776 14.5994 5.35342 14.6725 5.19854 14.7775C5.04365 14.8826 4.91134 15.0175 4.8094 15.1745C4.70745 15.3314 4.63792 15.5072 4.60491 15.6914C4.00501 18.8764 3.1604 22.0103 2.0786 25.0654L1.2365 27.304C0.798956 28.4621 0.629978 29.7043 0.742298 30.9372C0.854618 32.17 1.2453 33.3613 1.88492 34.4212L2.29755 35.1089C2.80307 35.949 3.07018 36.9109 3.07018 37.8914C3.07018 38.8718 2.80307 39.8337 2.29755 40.6738C1.52731 41.9522 1.12029 43.4164 1.12029 44.9089C1.12029 46.4014 1.52731 47.8656 2.29755 49.144L2.41544 49.3404C2.70378 49.8174 3.04002 50.2637 3.41895 50.6724C1.20323 53.4111 -0.00383917 56.8282 9.1734e-06 60.3509V61.7544C9.1734e-06 62.1267 0.147878 62.4837 0.411086 62.7469C0.674294 63.0101 1.03128 63.1579 1.40351 63.1579C1.77575 63.1579 2.13273 63.0101 2.39594 62.7469C2.65915 62.4837 2.80702 62.1267 2.80702 61.7544V60.3509C2.81041 57.9899 3.47549 55.677 4.7268 53.6748C5.9781 51.6725 7.76553 50.0611 9.88629 49.0233L9.85822 49.3138C9.70695 50.9139 10.0168 52.524 10.7511 53.9537C11.4854 55.3834 12.6136 56.5732 14.0023 57.3823C15.3911 58.1915 16.9824 58.5864 18.5883 58.5203C20.1942 58.4541 21.7477 57.9298 23.0652 57.0092L23.8596 56.4478L24.6554 57.0092C25.9728 57.9293 27.526 58.4532 29.1315 58.5191C30.737 58.5851 32.3279 58.1903 33.7164 57.3813C35.1048 56.5724 36.2328 55.3831 36.9672 53.9538C37.7016 52.5245 38.0117 50.915 37.8609 49.3152L37.8329 49.0162C38.6386 49.4102 39.3998 49.8892 40.1037 50.445C37.7688 53.2175 36.4892 56.7262 36.4911 60.3509V61.7544C36.4911 62.1267 36.639 62.4837 36.9022 62.7469C37.1654 63.0101 37.5224 63.1579 37.8946 63.1579C38.2669 63.1579 38.6238 63.0101 38.8871 62.7469C39.1503 62.4837 39.2981 62.1267 39.2981 61.7544V60.3509C39.301 57.8551 40.0422 55.4158 41.4286 53.3404C42.815 51.265 44.7844 49.6462 47.089 48.6878L50.6202 59.6997C50.6832 59.8961 50.7887 60.0761 50.9292 60.2271C51.0697 60.3781 51.2418 60.4962 51.4331 60.5731C51.6245 60.65 51.8304 60.6838 52.0363 60.6721C52.2422 60.6604 52.443 60.6035 52.6244 60.5053L55.503 58.9474C55.877 59.5882 56.3746 60.1483 56.9669 60.5951L54.7605 72.7284C54.7258 72.9185 54.7306 73.1138 54.7748 73.3019C54.819 73.4901 54.9016 73.667 55.0174 73.8218L59.2279 79.4358C59.3586 79.6101 59.5282 79.7516 59.723 79.849C59.9179 79.9465 60.1328 79.9972 60.3507 79.9972C60.5686 79.9972 60.7835 79.9465 60.9784 79.849C61.1733 79.7516 61.3428 79.6101 61.4735 79.4358L65.684 73.8218C65.7998 73.667 65.8824 73.4901 65.9266 73.3019C65.9708 73.1138 65.9756 72.9185 65.9409 72.7284L63.7346 60.5951C64.3268 60.1483 64.8244 59.5882 65.1984 58.9474L68.077 60.5025C68.2584 60.6007 68.4592 60.6576 68.6651 60.6693C68.871 60.681 69.0769 60.6472 69.2683 60.5703C69.4596 60.4934 69.6317 60.3753 69.7722 60.2243C69.9127 60.0733 70.0182 59.8933 70.0812 59.6969L73.6124 48.685C75.9174 49.6435 77.8872 51.2628 79.2736 53.3388C80.66 55.4147 81.401 57.8546 81.4033 60.3509V65.965H75.7893V63.1579C75.7893 62.7857 75.6414 62.4287 75.3782 62.1655C75.115 61.9023 74.758 61.7544 74.3857 61.7544C74.0135 61.7544 73.6565 61.9023 73.3933 62.1655C73.1301 62.4287 72.9822 62.7857 72.9822 63.1579V78.5965C72.9822 78.9687 73.1301 79.3257 73.3933 79.5889C73.6565 79.8521 74.0135 80 74.3857 80C74.758 80 75.115 79.8521 75.3782 79.5889C75.6414 79.3257 75.7893 78.9687 75.7893 78.5965V68.772H81.4033V78.5965C81.4033 78.9687 81.5511 79.3257 81.8143 79.5889C82.0776 79.8521 82.4345 80 82.8068 80C83.179 80 83.536 79.8521 83.7992 79.5889C84.0624 79.3257 84.2103 78.9687 84.2103 78.5965V60.3509C84.2055 56.2579 82.5773 52.3338 79.6831 49.4396C76.7889 46.5453 72.8648 44.9172 68.7717 44.9124ZM78.5963 23.8598C78.5929 24.8431 78.3319 25.8083 77.8394 26.6593C77.3469 27.5103 76.6401 28.2175 75.7893 28.7103V21.0528C76.5337 21.0528 77.2477 21.3486 77.7741 21.875C78.3005 22.4014 78.5963 23.1154 78.5963 23.8598ZM65.9647 45.2436V49.7348L60.3507 53.1032L54.7367 49.7348V45.2436C58.3428 46.6733 62.3586 46.6733 65.9647 45.2436ZM51.9297 43.8008V44.9124C50.4213 44.9128 48.9212 45.1355 47.4778 45.5734C47.5853 44.684 47.513 43.782 47.2652 42.921C47.0173 42.06 46.599 41.2577 46.035 40.5615C45.488 39.8864 45.1621 39.0592 45.1016 38.1924C45.0411 37.3256 45.2488 36.4612 45.6967 35.7166C46.8022 39.0377 48.999 41.887 51.9297 43.8008ZM44.9122 28.7103C44.0613 28.2175 43.3545 27.5103 42.862 26.6593C42.3695 25.8083 42.1085 24.8431 42.1051 23.8598C42.1089 23.1877 42.3557 22.5397 42.7999 22.0353L42.8181 22.0212C42.8181 22.0128 42.8265 22.003 42.8336 21.9946C43.0942 21.7001 43.4141 21.464 43.7723 21.3017C44.1305 21.1394 44.5189 21.0546 44.9122 21.0528V28.7103ZM39.2981 30.8773V20.5307C39.5073 20.7904 39.7192 21.0486 39.9494 21.2914C39.5275 22.0822 39.304 22.9636 39.2981 23.8598C39.3047 25.6041 39.8521 27.3035 40.8649 28.7237C41.8776 30.1439 43.3059 31.2151 44.9529 31.7896C44.8107 32.1546 44.6169 32.4973 44.3774 32.8072L43.816 33.5089C42.8162 34.7683 42.2764 36.3314 42.2861 37.9393C42.2958 39.5473 42.8544 41.1038 43.8693 42.351C44.3752 43.0287 44.6654 43.8429 44.7019 44.6878C44.7385 45.5327 44.5197 46.369 44.0743 47.0878C43.3836 47.492 42.7253 47.949 42.1051 48.4548C39.3463 46.1598 35.8693 44.9061 32.2806 44.9124V43.8008C34.4328 42.4002 36.2016 40.4849 37.427 38.2283C38.6523 35.9717 39.2954 33.4451 39.2981 30.8773ZM29.4736 45.2436V49.7348L23.8596 53.1032L18.2456 49.7348V45.2436C21.8517 46.6733 25.8675 46.6733 29.4736 45.2436ZM15.4386 43.8008V44.9124C11.7486 44.9121 8.18187 46.2404 5.39087 48.6541C5.18173 48.4181 4.99386 48.164 4.82947 47.8948L4.71017 47.6983C4.20324 46.8565 3.93538 45.8923 3.93538 44.9096C3.93538 43.9269 4.20324 42.9627 4.71017 42.1208C5.47873 40.8444 5.88484 39.3827 5.88484 37.8928C5.88484 36.4028 5.47873 34.9411 4.71017 33.6647L4.29894 32.977C3.87839 32.2785 3.62198 31.4936 3.54904 30.6816C3.4761 29.8695 3.58855 29.0515 3.87789 28.2893L3.95649 28.0774C4.96974 29.8147 6.57135 31.132 8.47156 31.791C8.6144 34.1978 9.31896 36.5378 10.5288 38.6233C11.7386 40.7088 13.4201 42.482 15.4386 43.8008ZM8.42104 28.7103C7.57022 28.2175 6.86336 27.5103 6.37087 26.6593C5.87837 25.8083 5.61743 24.8431 5.61403 23.8598C5.61403 23.1154 5.90976 22.4014 6.43618 21.875C6.9626 21.3486 7.67657 21.0528 8.42104 21.0528V28.7103ZM15.4203 54.9559C14.4827 54.4287 13.7206 53.6376 13.2288 52.6809C12.737 51.7242 12.5371 50.6441 12.654 49.5748L12.7944 48.0001C13.6634 47.8134 14.5497 47.7193 15.4386 47.7194V50.5264C15.4386 50.7686 15.5013 51.0066 15.6206 51.2174C15.7399 51.4282 15.9117 51.6045 16.1193 51.7292L21.2701 54.8169C20.4082 55.3914 19.401 55.7095 18.3655 55.7344C17.33 55.7592 16.3088 55.4898 15.4203 54.9573V54.9559ZM35.0694 49.5762C35.1693 50.6239 34.9723 51.6785 34.5008 52.6193C34.0293 53.5602 33.3024 54.3493 32.4034 54.8963C31.5043 55.4432 30.4694 55.726 29.4171 55.7123C28.3648 55.6985 27.3377 55.3887 26.4533 54.8183L31.6041 51.7306C31.8111 51.6053 31.9822 51.4285 32.1008 51.2175C32.2193 51.0065 32.2812 50.7684 32.2806 50.5264V47.7194C33.1675 47.7205 34.0519 47.8146 34.9192 48.0001L35.0694 49.5762ZM49.7921 47.9131C50.4979 47.7882 51.213 47.7234 51.9297 47.7194V50.5264C51.9297 50.7686 51.9924 51.0066 52.1117 51.2174C52.231 51.4282 52.4028 51.6045 52.6104 51.7292L57.5156 54.6766L52.7718 57.2324L49.7921 47.9131ZM63.0707 72.6316L60.3507 76.2569L57.6307 72.6316L59.6195 61.6843C60.1032 61.7704 60.5982 61.7704 61.0819 61.6843L63.0707 72.6316ZM60.3507 58.9474C59.8727 58.9473 59.4027 58.8252 58.9852 58.5926C58.5676 58.36 58.2164 58.0247 57.9647 57.6183L60.3507 56.3327L62.7367 57.6183C62.485 58.0247 62.1338 58.36 61.7162 58.5926C61.2987 58.8252 60.8287 58.9473 60.3507 58.9474ZM67.9296 57.2324L63.1858 54.6724L68.091 51.725C68.298 51.6006 68.4694 51.425 68.5887 51.215C68.7079 51.0051 68.771 50.7679 68.7717 50.5264V47.7194C69.4899 47.7236 70.2064 47.7889 70.9135 47.9145L67.9296 57.2324Z" fill="black"/>
<path d="M65.9648 29.4735C66.7399 29.4735 67.3683 28.8451 67.3683 28.07C67.3683 27.2949 66.7399 26.6665 65.9648 26.6665C65.1896 26.6665 64.5613 27.2949 64.5613 28.07C64.5613 28.8451 65.1896 29.4735 65.9648 29.4735Z" fill="black"/>
<path d="M54.7368 29.4735C55.5119 29.4735 56.1403 28.8451 56.1403 28.07C56.1403 27.2949 55.5119 26.6665 54.7368 26.6665C53.9616 26.6665 53.3333 27.2949 53.3333 28.07C53.3333 28.8451 53.9616 29.4735 54.7368 29.4735Z" fill="black"/>
<path d="M68.7717 21.0527H64.5612C64.189 21.0527 63.832 21.2006 63.5688 21.4638C63.3056 21.727 63.1577 22.084 63.1577 22.4562C63.1577 22.8285 63.3056 23.1855 63.5688 23.4487C63.832 23.7119 64.189 23.8597 64.5612 23.8597H68.7717C69.144 23.8597 69.501 23.7119 69.7642 23.4487C70.0274 23.1855 70.1752 22.8285 70.1752 22.4562C70.1752 22.084 70.0274 21.727 69.7642 21.4638C69.501 21.2006 69.144 21.0527 68.7717 21.0527Z" fill="black"/>
<path d="M57.5436 22.4562C57.5436 22.084 57.3958 21.727 57.1326 21.4638C56.8694 21.2006 56.5124 21.0527 56.1401 21.0527H51.9296C51.5574 21.0527 51.2004 21.2006 50.9372 21.4638C50.674 21.727 50.5261 22.084 50.5261 22.4562C50.5261 22.8285 50.674 23.1855 50.9372 23.4487C51.2004 23.7119 51.5574 23.8597 51.9296 23.8597H56.1401C56.5124 23.8597 56.8694 23.7119 57.1326 23.4487C57.3958 23.1855 57.5436 22.8285 57.5436 22.4562Z" fill="black"/>
<path d="M46.3157 61.7544C45.9435 61.7544 45.5865 61.9023 45.3233 62.1655C45.0601 62.4287 44.9122 62.7857 44.9122 63.1579V65.9649H37.8947C37.5225 65.9649 37.1655 66.1128 36.9023 66.376C36.6391 66.6392 36.4912 66.9962 36.4912 67.3684V78.5964C36.4912 78.9687 36.6391 79.3257 36.9023 79.5889C37.1655 79.8521 37.5225 80 37.8947 80C38.2669 80 38.6239 79.8521 38.8871 79.5889C39.1504 79.3257 39.2982 78.9687 39.2982 78.5964V68.7719H44.9122V78.5964C44.9122 78.9687 45.0601 79.3257 45.3233 79.5889C45.5865 79.8521 45.9435 80 46.3157 80C46.688 80 47.045 79.8521 47.3082 79.5889C47.5714 79.3257 47.7192 78.9687 47.7192 78.5964V63.1579C47.7192 62.7857 47.5714 62.4287 47.3082 62.1655C47.045 61.9023 46.688 61.7544 46.3157 61.7544Z" fill="black"/>
<path d="M51.5899 39.2565L55.8495 40.3218C56.4461 40.4725 57.0588 40.5498 57.6741 40.5519C58.5955 40.5565 59.5073 40.3652 60.3492 39.9905C61.7697 40.6037 63.3555 40.7199 64.8502 40.3204L69.1098 39.2551C69.4047 39.1815 69.6677 39.0143 69.8593 38.7785C70.0509 38.5427 70.1609 38.251 70.1726 37.9474C70.1843 37.6438 70.0971 37.3445 69.9242 37.0947C69.7513 36.8448 69.502 36.6578 69.2137 36.5618C67.5048 35.9236 65.9738 34.885 64.7491 33.533C64.1865 32.9659 63.4742 32.5706 62.6954 32.3932C61.9165 32.2157 61.1033 32.2635 60.3506 32.5309C59.5977 32.2632 58.7841 32.2153 58.005 32.3927C57.2259 32.5702 56.5133 32.9657 55.9506 33.533C54.7263 34.8858 53.1953 35.925 51.486 36.5632C51.1977 36.6592 50.9484 36.8462 50.7755 37.0961C50.6026 37.346 50.5155 37.6452 50.5272 37.9488C50.5389 38.2525 50.6488 38.5441 50.8404 38.7799C51.0321 39.0157 51.2951 39.183 51.5899 39.2565ZM57.9492 35.5091C58.1654 35.2868 58.4505 35.1442 58.758 35.1045C59.0656 35.0647 59.3776 35.1302 59.6432 35.2902C59.8579 35.4155 60.102 35.4815 60.3506 35.4815C60.5991 35.4815 60.8432 35.4155 61.0579 35.2902C61.3237 35.1304 61.6356 35.0651 61.9431 35.1048C62.2506 35.1446 62.5356 35.2871 62.752 35.5091C63.4246 36.1987 64.1486 36.8363 64.9176 37.4165L64.1723 37.6032C63.1715 37.8842 62.1006 37.7655 61.1857 37.2719C60.9693 37.1441 60.7226 37.0768 60.4713 37.0769H60.2299C59.9786 37.0768 59.7318 37.1441 59.5155 37.2719C58.6005 37.7655 57.5297 37.8842 56.5288 37.6032L55.7836 37.4165C56.5526 36.8363 57.2765 36.1987 57.9492 35.5091Z" fill="black"/>
<path d="M72.9823 12.6316C72.9823 12.2594 72.8344 11.9024 72.5712 11.6392C72.308 11.376 71.951 11.2281 71.5788 11.2281C68.2395 11.2212 64.9913 10.1384 62.3157 8.14038L61.1929 7.29828C61.0454 7.18769 60.8776 7.10723 60.6991 7.06149C60.5205 7.01575 60.3347 7.00562 60.1523 7.03168C59.9698 7.05775 59.7943 7.1195 59.6357 7.2134C59.4771 7.30731 59.3386 7.43153 59.228 7.57898C59.1174 7.72643 59.0369 7.89421 58.9912 8.07276C58.9454 8.2513 58.9353 8.43711 58.9614 8.61957C59.014 8.98806 59.2109 9.32055 59.5087 9.54389L60.6315 10.386C63.7935 12.7474 67.6323 14.027 71.5788 14.0351C71.951 14.0351 72.308 13.8872 72.5712 13.624C72.8344 13.3608 72.9823 13.0038 72.9823 12.6316Z" fill="black"/>
<path d="M46.3154 8.42108C46.3162 9.35254 46.0236 10.2606 45.4792 11.0164C44.9348 11.7722 44.1661 12.3373 43.2824 12.6316L43.0662 12.7032C42.7499 12.8083 42.4813 13.0225 42.3085 13.3076C42.1357 13.5927 42.07 13.93 42.1232 14.259C42.1764 14.5881 42.345 14.8875 42.5988 15.1036C42.8526 15.3198 43.175 15.4385 43.5083 15.4386C43.6586 15.4388 43.8079 15.4147 43.9504 15.367L44.1694 15.294C45.6127 14.8145 46.8681 13.8923 47.7573 12.6585C48.6464 11.4246 49.1241 9.94193 49.1224 8.42108C49.1224 8.04885 48.9745 7.69186 48.7113 7.42866C48.4481 7.16545 48.0911 7.01758 47.7189 7.01758C47.3466 7.01758 46.9896 7.16545 46.7264 7.42866C46.4632 7.69186 46.3154 8.04885 46.3154 8.42108Z" fill="black"/>
</svg>
