<svg width="73" height="80" viewBox="0 0 73 80" fill="none" xmlns="http://www.w3.org/2000/svg">
<path d="M31.25 33.75V31.25C32.0175 31.25 32.67 30.4837 33.0825 29.84C33.5244 29.14 33.7561 28.3278 33.75 27.5C33.75 27.1685 33.6183 26.8505 33.3839 26.6161C33.1495 26.3817 32.8315 26.25 32.5 26.25H31.25V23.75H32.5C33.4946 23.75 34.4484 24.1451 35.1517 24.8483C35.8549 25.5516 36.25 26.5054 36.25 27.5C36.2566 28.8066 35.8874 30.0875 35.1863 31.19C34.8142 31.926 34.2541 32.5504 33.5628 33C32.8715 33.4496 32.0736 33.7084 31.25 33.75Z" fill="black"/>
<path d="M11.2501 33.75C10.4265 33.7084 9.62856 33.4496 8.93725 33C8.24594 32.5504 7.68586 31.926 7.31384 31.19C6.61274 30.0875 6.24348 28.8066 6.25009 27.5C6.25009 26.5054 6.64517 25.5516 7.34844 24.8483C8.0517 24.1451 9.00553 23.75 10.0001 23.75H11.2501V26.25H10.0001C9.66857 26.25 9.35062 26.3817 9.1162 26.6161C8.88178 26.8505 8.75009 27.1685 8.75009 27.5C8.74399 28.3278 8.97566 29.14 9.41759 29.84C9.83009 30.4837 10.4826 31.25 11.2501 31.25V33.75Z" fill="black"/>
<path d="M21.25 41.2497C18.2673 41.2464 15.4078 40.0601 13.2987 37.951C11.1896 35.842 10.0033 32.9824 10 29.9997V22.4997C10.0001 22.1682 10.1318 21.8503 10.3663 21.616L15.3663 16.616C15.6007 16.3816 15.9185 16.25 16.25 16.25C16.5815 16.25 16.8993 16.3816 17.1338 16.616C17.1775 16.6585 21.9462 21.2497 31.25 21.2497C31.5815 21.2497 31.8995 21.3814 32.1339 21.6158C32.3683 21.8503 32.5 22.1682 32.5 22.4997V29.9997C32.4967 32.9824 31.3104 35.842 29.2013 37.951C27.0922 40.0601 24.2327 41.2464 21.25 41.2497ZM12.5 23.0172V29.9997C12.5 32.3204 13.4219 34.546 15.0628 36.1869C16.7038 37.8279 18.9294 38.7497 21.25 38.7497C23.5706 38.7497 25.7962 37.8279 27.4372 36.1869C29.0781 34.546 30 32.3204 30 29.9997V23.7235C25.0845 23.6523 20.3097 22.0717 16.3225 19.196L12.5 23.0172Z" fill="black"/>
<path d="M21.25 46.25C17.5425 46.25 17.5 43.8525 17.5 43.75V40H20V43.53C20.3907 43.71 20.8213 43.7858 21.25 43.75C21.6787 43.7858 22.1093 43.71 22.5 43.53V40H25V43.75C25 43.8525 24.9575 46.25 21.25 46.25Z" fill="black"/>
<path d="M38.75 80H3.75C3.41848 80 3.10054 79.8683 2.86612 79.6339C2.6317 79.3995 2.5 79.0815 2.5 78.75V58.75H5V77.5H37.5V62.5H40V78.75C40 79.0815 39.8683 79.3995 39.6339 79.6339C39.3995 79.8683 39.0815 80 38.75 80Z" fill="black"/>
<path d="M61.25 27.5V25C62.0175 25 62.67 24.2337 63.0825 23.59C63.5244 22.89 63.7561 22.0778 63.75 21.25C63.75 20.9185 63.6183 20.6005 63.3839 20.3661C63.1495 20.1317 62.8315 20 62.5 20H61.25V17.5H62.5C63.4946 17.5 64.4484 17.8951 65.1516 18.5983C65.8549 19.3016 66.25 20.2554 66.25 21.25C66.2566 22.5566 65.8873 23.8375 65.1862 24.94C64.8142 25.676 64.2541 26.3004 63.5628 26.75C62.8715 27.1996 62.0736 27.4584 61.25 27.5Z" fill="black"/>
<path d="M41.2501 27.5C40.4265 27.4584 39.6286 27.1996 38.9373 26.75C38.2459 26.3004 37.6859 25.676 37.3138 24.94C36.6127 23.8375 36.2435 22.5566 36.2501 21.25C36.2501 20.2554 36.6452 19.3016 37.3484 18.5983C38.0517 17.8951 39.0055 17.5 40.0001 17.5H41.2501V20H40.0001C39.6686 20 39.3506 20.1317 39.1162 20.3661C38.8818 20.6005 38.7501 20.9185 38.7501 21.25C38.744 22.0778 38.9757 22.89 39.4176 23.59C39.8301 24.2337 40.4826 25 41.2501 25V27.5Z" fill="black"/>
<path d="M51.25 34.9997C48.2673 34.9964 45.4078 33.8101 43.2987 31.701C41.1896 29.592 40.0033 26.7324 40 23.7497V16.2497C40.0001 15.9182 40.1318 15.6003 40.3662 15.366L45.3662 10.366C45.6007 10.1316 45.9185 10 46.25 10C46.5815 10 46.8993 10.1316 47.1338 10.366C47.1775 10.4085 51.9462 14.9997 61.25 14.9997C61.5815 14.9997 61.8995 15.1314 62.1339 15.3658C62.3683 15.6003 62.5 15.9182 62.5 16.2497V23.7497C62.4967 26.7324 61.3104 29.592 59.2013 31.701C57.0922 33.8101 54.2327 34.9964 51.25 34.9997ZM42.5 16.7672V23.7497C42.5 26.0704 43.4219 28.296 45.0628 29.9369C46.7038 31.5779 48.9294 32.4997 51.25 32.4997C53.5706 32.4997 55.7962 31.5779 57.4372 29.9369C59.0781 28.296 60 26.0704 60 23.7497V17.4735C55.0845 17.4023 50.3097 15.8217 46.3225 12.946L42.5 16.7672Z" fill="black"/>
<path d="M66.25 21.25H63.75V15C63.75 11.6848 62.433 8.50537 60.0888 6.16116C57.7446 3.81696 54.5652 2.5 51.25 2.5C47.9348 2.5 44.7554 3.81696 42.4112 6.16116C40.067 8.50537 38.75 11.6848 38.75 15V21.25H36.25V15C36.25 11.0218 37.8304 7.20644 40.6434 4.3934C43.4564 1.58035 47.2718 0 51.25 0C55.2282 0 59.0436 1.58035 61.8566 4.3934C64.6696 7.20644 66.25 11.0218 66.25 15V21.25Z" fill="black"/>
<path d="M51.25 40C47.5425 40 47.5 37.6025 47.5 37.5V33.75H50V37.28C50.8075 37.5733 51.6925 37.5733 52.5 37.28V33.75H55V37.5C55 37.6025 54.9575 40 51.25 40Z" fill="black"/>
<path d="M48.75 36.25H38.75V38.75H48.75V36.25Z" fill="black"/>
<path d="M36.25 43.75H33.75V24.4925C33.75 16.5 28.1425 10 21.25 10C14.3575 10 8.75 16.5 8.75 24.4925V42.5H6.25V24.4925C6.25 15.125 12.9787 7.5 21.25 7.5C29.5212 7.5 36.25 15.125 36.25 24.4925V43.75Z" fill="black"/>
<path d="M9.44875 52.4994H7.5C6.50544 52.4994 5.55161 52.1043 4.84835 51.4011C4.14509 50.6978 3.75 49.744 3.75 48.7494C3.75 45.7232 5.3175 39.9994 11.25 39.9994C12.0792 39.968 12.9059 40.1082 13.6784 40.4112C14.4509 40.7142 15.1525 41.1734 15.7393 41.7602C16.326 42.3469 16.7853 43.0485 17.0882 43.821C17.3912 44.5935 17.5314 45.4202 17.5 46.2494V46.9819C17.5007 47.4999 17.3679 48.0093 17.1144 48.461C16.8609 48.9126 16.4953 49.2914 16.0528 49.5606C15.6103 49.8298 15.1059 49.9805 14.5883 49.998C14.0706 50.0155 13.5572 49.8994 13.0975 49.6607L13.0062 49.9357C12.7573 50.6823 12.2798 51.3316 11.6413 51.7917C11.0028 52.2519 10.2358 52.4994 9.44875 52.4994ZM11.25 42.4994C6.3075 42.4994 6.25 48.4994 6.25 48.7494C6.25 49.081 6.3817 49.3989 6.61612 49.6333C6.85054 49.8677 7.16848 49.9994 7.5 49.9994H9.44875C9.71121 49.9995 9.96702 49.9169 10.1799 49.7635C10.3929 49.61 10.5521 49.3934 10.635 49.1444L11.3137 47.1044C11.3811 46.9022 11.499 46.7206 11.6563 46.5768C11.8136 46.433 12.0051 46.3318 12.2125 46.2829C12.4199 46.2339 12.6364 46.2388 12.8414 46.297C13.0464 46.3553 13.2331 46.465 13.3837 46.6157L14.1163 47.3482C14.1916 47.4122 14.2832 47.4542 14.3809 47.4696C14.4786 47.4849 14.5787 47.473 14.67 47.4351C14.7614 47.3972 14.8406 47.3349 14.8988 47.2549C14.957 47.175 14.992 47.0805 15 46.9819V46.2494C15.0267 45.75 14.9479 45.2505 14.7689 44.7834C14.5899 44.3164 14.3146 43.8922 13.9609 43.5385C13.6072 43.1848 13.1831 42.9095 12.716 42.7305C12.249 42.5515 11.7495 42.4728 11.25 42.4994Z" fill="black"/>
<path d="M24.9996 50.0002C24.3378 50.0196 23.6789 49.9035 23.0636 49.6591C22.4482 49.4147 21.8892 49.0471 21.421 48.5788C20.9528 48.1106 20.5852 47.5517 20.3408 46.9363C20.0964 46.3209 19.9803 45.6621 19.9996 45.0002H21.2496L22.4996 44.9902C22.4771 45.3248 22.5262 45.6604 22.6437 45.9744C22.7612 46.2885 22.9445 46.5739 23.1811 46.8115C23.4178 47.0491 23.7024 47.2334 24.016 47.3522C24.3296 47.471 24.665 47.5215 24.9996 47.5002C25.3335 47.5217 25.6681 47.4718 25.9812 47.3537C26.2942 47.2357 26.5785 47.0523 26.8151 46.8157C27.0517 46.5791 27.2351 46.2948 27.3531 45.9818C27.4712 45.6687 27.5211 45.3341 27.4996 45.0002H29.9996C30.019 45.6621 29.9029 46.3209 29.6585 46.9363C29.4141 47.5517 29.0465 48.1106 28.5783 48.5788C28.11 49.0471 27.5511 49.4147 26.9357 49.6591C26.3203 49.9035 25.6615 50.0196 24.9996 50.0002Z" fill="black"/>
<path d="M17.4999 50C16.2857 50.0435 15.099 49.632 14.1724 48.8462L15.8274 46.9712C16.2989 47.3509 16.8958 47.5396 17.4999 47.5C17.8337 47.5215 18.1684 47.4715 18.4814 47.3535C18.7945 47.2355 19.0787 47.052 19.3153 46.8155C19.5519 46.5789 19.7353 46.2946 19.8534 45.9815C19.9714 45.6685 20.0213 45.3339 19.9999 45H22.4999C22.5192 45.6619 22.4031 46.3207 22.1587 46.9361C21.9143 47.5515 21.5467 48.1104 21.0785 48.5786C20.6103 49.0468 20.0513 49.4144 19.4359 49.6588C18.8206 49.9033 18.1617 50.0194 17.4999 50Z" fill="black"/>
<path d="M11.2497 78.7506H8.74972V77.5006C8.70739 75.5578 9.1842 73.6389 10.131 71.9418C10.9059 70.5927 11.293 69.0558 11.2497 67.5006C11.3031 66.8396 11.1934 66.1757 10.9303 65.567C10.6673 64.9583 10.2589 64.4234 9.74097 64.0093C8.98999 63.3627 8.39742 62.5523 8.00886 61.6406C7.6203 60.7289 7.44611 59.7402 7.49972 58.7506C7.59021 56.7104 8.4738 54.7863 9.96222 53.3881L10.3372 52.9443L12.2497 54.5568L11.8435 55.0268C10.7713 55.9836 10.1106 57.3179 9.99972 58.7506C9.94637 59.4115 10.056 60.0755 10.3191 60.6842C10.5821 61.2929 10.9905 61.8278 11.5085 62.2418C12.2594 62.8885 12.852 63.6989 13.2406 64.6106C13.6291 65.5223 13.8033 66.511 13.7497 67.5006C13.794 69.4428 13.3193 71.3617 12.3747 73.0593C11.5976 74.4078 11.2083 75.9448 11.2497 77.5006V78.7506Z" fill="black"/>
<path d="M33.7497 78.7503H31.2497V77.5003C31.293 75.9451 30.9059 74.4082 30.131 73.0591C29.1842 71.362 28.7074 69.4431 28.7497 67.5003C28.6961 66.5107 28.8703 65.522 29.2589 64.6103C29.6474 63.6986 30.24 62.8882 30.991 62.2416C31.5089 61.8275 31.9173 61.2926 32.1803 60.6839C32.4434 60.0752 32.5531 59.4113 32.4997 58.7503C32.3875 57.3169 31.725 55.9825 30.651 55.0266L30.246 54.5578L32.1585 52.9453L32.5335 53.3878C34.0231 54.7856 34.908 56.7097 34.9997 58.7503C35.0533 59.7399 34.8791 60.7286 34.4906 61.6403C34.102 62.552 33.5094 63.3624 32.7585 64.0091C32.2405 64.4231 31.8321 64.958 31.5691 65.5667C31.306 66.1754 31.1964 66.8394 31.2497 67.5003C31.2064 69.0555 31.5936 70.5925 32.3685 71.9416C33.3152 73.6386 33.792 75.5575 33.7497 77.5003V78.7503Z" fill="black"/>
<path d="M41.2507 59.9996H33.7507V57.4996H39.6495L38.2032 51.7146C38.0515 51.102 37.747 50.5378 37.3181 50.0748C36.8892 49.6118 36.35 49.2651 35.7507 49.0671L23.3545 44.9346L24.1445 42.5596L36.5407 46.6908C37.5396 47.021 38.4385 47.599 39.1533 48.3709C39.8681 49.1428 40.3756 50.0833 40.6282 51.1046L42.462 58.4421C42.5088 58.6265 42.5129 58.8192 42.4739 59.0055C42.4349 59.1918 42.354 59.3667 42.2371 59.5169C42.1203 59.6672 41.9707 59.7887 41.7998 59.8724C41.6288 59.956 41.441 59.9995 41.2507 59.9996Z" fill="black"/>
<path d="M8.74965 60.0006H1.24965C1.05978 60.0006 0.872418 59.9573 0.701781 59.874C0.531144 59.7907 0.381719 59.6697 0.264849 59.52C0.147979 59.3704 0.0667344 59.1961 0.0272818 59.0104C-0.0121707 58.8246 -0.00879429 58.6324 0.0371547 58.4481L1.9209 50.9219L4.33341 51.5794L4.2959 51.7156L2.8509 57.5006H8.74965V60.0006Z" fill="black"/>
<path d="M18.355 42.563L14.6045 43.8145L15.3954 46.1847L19.1459 44.9333L18.355 42.563Z" fill="black"/>
<path d="M65 80H37.5V77.5H63.75V56.25H66.25V78.75C66.25 79.0815 66.1183 79.3995 65.8839 79.6339C65.6495 79.8683 65.3315 80 65 80Z" fill="black"/>
<path d="M66.25 51.25H63.75V53.75H66.25V51.25Z" fill="black"/>
<path d="M71.2496 80.0004H64.9996C64.668 80.0004 64.3501 79.8687 64.1157 79.6342C63.8813 79.3998 63.7496 79.0819 63.7496 78.7504V56.2504H66.2496V77.5004H69.9996V46.2729C69.9967 45.4584 69.73 44.6667 69.2394 44.0166C68.7488 43.3664 68.0608 42.8928 67.2783 42.6666L53.4033 38.7029L54.0883 36.2979L67.9633 40.2616C69.2677 40.6384 70.4149 41.4279 71.2327 42.5117C72.0506 43.5954 72.4951 44.9151 72.4996 46.2729V78.7504C72.4996 79.0819 72.3679 79.3998 72.1335 79.6342C71.899 79.8687 71.5811 80.0004 71.2496 80.0004Z" fill="black"/>
<path d="M71.25 62.5H65V65H71.25V62.5Z" fill="black"/>
<path d="M71.25 58.75H65V61.25H71.25V58.75Z" fill="black"/>
</svg>