<svg width="12" height="15" viewBox="0 0 12 15" fill="none" xmlns="http://www.w3.org/2000/svg">
<g clip-path="url(#clip0_2088_125)">
<path d="M1.83333 14C1.46667 14 1.15267 13.8693 0.891334 13.608C0.630001 13.3467 0.499557 13.0329 0.500001 12.6667V6C0.500001 5.63333 0.630668 5.31933 0.892001 5.058C1.15333 4.79667 1.46711 4.66622 1.83333 4.66667H2.5V3.33333C2.5 2.41111 2.82511 1.62489 3.47533 0.974667C4.12556 0.324445 4.91156 -0.000443989 5.83333 4.55373e-07C6.75556 4.55373e-07 7.54178 0.325112 8.192 0.975334C8.84222 1.62556 9.16711 2.41156 9.16667 3.33333V4.66667H9.83333C10.2 4.66667 10.514 4.79733 10.7753 5.05867C11.0367 5.32 11.1671 5.63378 11.1667 6V12.6667C11.1667 13.0333 11.036 13.3473 10.7747 13.6087C10.5133 13.87 10.1996 14.0004 9.83333 14H1.83333ZM5.83333 10.6667C6.2 10.6667 6.514 10.536 6.77533 10.2747C7.03667 10.0133 7.16711 9.69956 7.16667 9.33333C7.16667 8.96667 7.036 8.65267 6.77467 8.39133C6.51333 8.13 6.19956 7.99956 5.83333 8C5.46667 8 5.15267 8.13067 4.89133 8.392C4.63 8.65333 4.49956 8.96711 4.5 9.33333C4.5 9.7 4.63067 10.014 4.892 10.2753C5.15333 10.5367 5.46711 10.6671 5.83333 10.6667ZM3.83333 4.66667H7.83333V3.33333C7.83333 2.77778 7.63889 2.30556 7.25 1.91667C6.86111 1.52778 6.38889 1.33333 5.83333 1.33333C5.27778 1.33333 4.80556 1.52778 4.41667 1.91667C4.02778 2.30556 3.83333 2.77778 3.83333 3.33333V4.66667Z" fill="white"/>
</g>
<defs>
<clipPath id="clip0_2088_125">
<rect width="11" height="15" fill="white" transform="translate(0.5)"/>
</clipPath>
</defs>
</svg>